<?xml version="1.0" encoding="utf-8"?>
<svg version="1.1" xmlns="http://www.w3.org/2000/svg" 
     xmlns:xlink="http://www.w3.org/1999/xlink" 
     viewBox="0 0 362 82" 
     preserveAspectRatio="xMidYMid meet">
<style type="text/css">
	.st0{fill:#2E2C70;}
	.st1{fill-rule:evenodd;clip-rule:evenodd;fill:#D71920;}
	.st2{fill-rule:evenodd;clip-rule:evenodd;fill:#FFFFFF;}
	.st3{fill-rule:evenodd;clip-rule:evenodd;fill:#F3C206;}
	.st4{fill-rule:evenodd;clip-rule:evenodd;fill:#2E2C70;}
	.st5{fill-rule:evenodd;clip-rule:evenodd;fill:#006035;}
	.st6{fill:#D71920;}
</style>
<g id="XMLID_12_">
	<g id="XMLID_389_">
		<path id="XMLID_410_" class="st0" d="M69.5,76.6c-0.2,0.3-0.4,0.6-0.7,0.8c-0.3,0.2-0.7,0.4-1.1,0.5c-0.4,0.1-0.8,0.1-1.3,0.1
			c-0.2,0-0.4,0-0.6,0c-0.2,0-0.4,0-0.6,0c-0.2,0-0.4,0-0.6,0c-0.2,0-0.4,0-0.6,0C64,78,64,78,64,77.9c0-0.1,0-0.1,0.1-0.1
			c0.2,0,0.3-0.1,0.4-0.2c0.1-0.1,0.1-0.2,0.1-0.4v-3.8c0-0.1,0-0.2-0.1-0.2c-0.1,0-0.2-0.1-0.2-0.1c-0.1,0-0.1,0-0.2,0
			c-0.1,0-0.1,0-0.1-0.1c0,0,0-0.1,0-0.1c0,0,0,0,0.1,0c0.1,0,0.2,0,0.3,0c0.1,0,0.2,0,0.3,0c0.1,0,0.2,0,0.4,0c0.1,0,0.2,0,0.3,0
			c0.3,0,0.5,0,0.8,0c0.1,0,0.3,0,0.4,0c0.2,0,0.3,0,0.4,0c0.3,0,0.5,0.1,0.9,0.2c0.3,0.1,0.6,0.2,0.9,0.4c0.3,0.2,0.5,0.4,0.7,0.6
			c0.2,0.2,0.3,0.5,0.4,0.8c0,0.1,0,0.2,0,0.3c0,0.1,0,0.2,0,0.3C69.8,75.9,69.7,76.3,69.5,76.6z M68.7,74.6
			c-0.2-0.3-0.4-0.6-0.6-0.8c-0.3-0.2-0.6-0.3-0.9-0.4c-0.3-0.1-0.7-0.2-1.1-0.2c-0.1,0-0.3,0-0.4,0c-0.1,0-0.3,0-0.4,0.1V77
			c0,0.2,0,0.3,0.1,0.4c0,0.1,0.1,0.2,0.2,0.2c0.1,0,0.2,0.1,0.3,0.1c0.1,0,0.3,0,0.4,0c0.3,0,0.7,0,1-0.1c0.3-0.1,0.6-0.2,0.8-0.4
			c0.2-0.2,0.4-0.4,0.6-0.6c0.1-0.3,0.2-0.6,0.2-1C69,75.2,68.9,74.9,68.7,74.6z"/>
		<path id="XMLID_408_" class="st0" d="M73.6,77.9L73.6,77.9c-0.1,0-0.2,0.1-0.3,0.1c-0.1,0-0.2,0-0.3,0c-0.1,0-0.2,0-0.3,0
			c-0.1,0-0.2,0-0.2,0c-0.1,0-0.2,0-0.3,0c-0.1,0-0.2,0-0.3,0c-0.2,0-0.5,0-0.7,0c-0.2,0-0.4,0-0.7,0c-0.1,0-0.1,0-0.1-0.1
			c0-0.1,0-0.1,0.1-0.1c0.2,0,0.3-0.1,0.3-0.2c0.1-0.1,0.1-0.2,0.1-0.4v-3.9c0-0.1,0-0.2-0.1-0.2c-0.1,0-0.1-0.1-0.2-0.1
			c-0.1,0-0.1,0-0.2,0c-0.1,0-0.1,0-0.2-0.1c-0.1,0-0.1-0.1,0-0.1c0,0,0.1-0.1,0.1-0.1c0.1,0,0.1,0,0.2,0c0.1,0,0.2,0,0.3,0
			c0.2,0,0.4,0,0.6,0c0.2,0,0.4,0,0.6,0c0.3,0,0.6,0,0.9,0c0.3,0,0.4,0,0.5-0.1c0,0,0.1,0,0.1,0c0,0,0,0,0,0.1c0,0.1,0,0.2-0.1,0.3
			c0,0.1-0.1,0.2-0.1,0.3c0,0,0,0.1,0,0.1c0,0,0,0.1,0,0.1c0,0-0.1,0.1-0.1,0.1c-0.1,0-0.1,0-0.1-0.1c0-0.1,0-0.2-0.1-0.3
			c0-0.1-0.1-0.1-0.2-0.1c-0.1,0-0.1-0.1-0.2-0.1c-0.1,0-0.2,0-0.3,0c-0.1,0-0.1,0-0.1,0c0,0-0.1,0-0.1,0c0,0-0.1,0-0.1,0
			c-0.1,0-0.1,0-0.2,0h-0.2v1.8h1.1c0,0,0.1,0,0.1,0c0,0,0.1,0,0.2-0.1h0c0.1,0,0.1-0.1,0.1-0.1c0,0,0.1-0.1,0.1-0.1
			c0,0,0.1,0,0.1,0c0,0,0,0,0,0.1c0,0.1,0,0.2,0,0.3c0,0.1,0,0.2,0,0.3c0,0.1,0,0.2,0,0.2c0,0.1,0,0.2,0,0.2c0,0,0,0.1-0.1,0.1
			c0,0-0.1,0-0.1,0c-0.1,0-0.1-0.1-0.1-0.1c0,0,0,0,0-0.1c0-0.1,0-0.1-0.1-0.2c0-0.1,0-0.1-0.1-0.1c0,0-0.1,0-0.2-0.1
			c-0.1,0-0.2,0-0.3,0c-0.1,0-0.2,0-0.3,0c-0.1,0-0.2,0-0.3,0h-0.1v1.8c0.1,0.1,0.2,0.2,0.4,0.3c0.2,0.1,0.4,0.1,0.5,0.1
			c0.2,0,0.4,0,0.6-0.1c0.2-0.1,0.3-0.3,0.3-0.5c0,0,0,0,0,0c0,0,0,0,0.1,0c0,0,0,0,0.1,0c0,0,0,0,0,0.1L73.6,77.9z"/>
		<path id="XMLID_406_" class="st0" d="M77.2,77.3c-0.1,0.2-0.3,0.3-0.5,0.5c-0.2,0.1-0.4,0.2-0.7,0.3c-0.2,0.1-0.5,0.1-0.7,0.1
			c-0.1,0-0.2,0-0.3,0c-0.1,0-0.2-0.1-0.3-0.1c-0.1-0.1-0.2-0.1-0.3-0.2c-0.1-0.1-0.1-0.2-0.1-0.3c0-0.1,0-0.1,0-0.2
			c0-0.1,0-0.1,0.1-0.2c0-0.1,0.1-0.2,0.1-0.3c0,0,0,0,0-0.1c0,0,0,0,0.1,0c0,0,0,0,0.1,0c0,0,0,0,0,0.1v0.1c0,0.1,0,0.2,0.1,0.3
			c0.1,0.1,0.1,0.2,0.2,0.2c0.1,0.1,0.2,0.1,0.3,0.1c0.1,0,0.2,0,0.4,0c0.1,0,0.2,0,0.3-0.1c0.1,0,0.2-0.1,0.3-0.1
			c0.1-0.1,0.2-0.1,0.3-0.2c0.1-0.1,0.1-0.2,0.1-0.3c0-0.1,0-0.2-0.1-0.3c-0.1-0.1-0.2-0.2-0.3-0.3c-0.1-0.1-0.2-0.2-0.3-0.3
			c-0.1-0.1-0.3-0.2-0.4-0.3c-0.2-0.1-0.3-0.3-0.4-0.4c-0.1-0.1-0.3-0.3-0.4-0.4c-0.1-0.1-0.2-0.3-0.3-0.4c-0.1-0.1-0.1-0.3-0.1-0.4
			c0-0.2,0.1-0.4,0.2-0.6c0.1-0.2,0.3-0.3,0.5-0.4c0.2-0.1,0.4-0.2,0.7-0.2c0.2,0,0.4-0.1,0.6-0.1c0.3,0,0.5,0,0.8,0.1
			c0.1,0,0.1,0,0.1,0.1v0.3c0,0.1,0,0.3,0,0.4c0,0.1-0.1,0.2-0.1,0.3c0,0-0.1,0-0.1,0c0,0-0.1,0-0.1-0.1c0-0.1,0-0.2-0.1-0.3
			c-0.1-0.1-0.1-0.2-0.2-0.2c-0.1-0.1-0.2-0.1-0.3-0.1c-0.1,0-0.2,0-0.3,0c-0.1,0-0.2,0-0.3,0.1c-0.1,0-0.2,0.1-0.3,0.1
			c-0.1,0.1-0.1,0.1-0.2,0.2c-0.1,0.1-0.1,0.2-0.1,0.3c0,0.1,0,0.2,0.1,0.3c0.1,0.1,0.1,0.2,0.2,0.3c0.1,0.1,0.2,0.2,0.3,0.3
			c0.1,0.1,0.2,0.2,0.3,0.3c0.1,0.1,0.3,0.2,0.4,0.3c0.2,0.1,0.3,0.2,0.4,0.4c0.1,0.1,0.2,0.3,0.3,0.4c0.1,0.1,0.1,0.3,0.1,0.5
			C77.4,76.9,77.3,77.1,77.2,77.3z"/>
		<path id="XMLID_403_" class="st0" d="M83.4,76.6c-0.2,0.3-0.4,0.6-0.7,0.8c-0.3,0.2-0.7,0.4-1.1,0.5c-0.4,0.1-0.8,0.1-1.3,0.1
			c-0.2,0-0.4,0-0.6,0c-0.2,0-0.4,0-0.6,0c-0.2,0-0.4,0-0.6,0c-0.2,0-0.4,0-0.6,0c-0.1,0-0.1,0-0.1-0.1c0-0.1,0-0.1,0.1-0.1
			c0.2,0,0.3-0.1,0.4-0.2c0.1-0.1,0.1-0.2,0.1-0.4v-3.8c0-0.1,0-0.2-0.1-0.2c-0.1,0-0.2-0.1-0.2-0.1c-0.1,0-0.1,0-0.2,0
			c-0.1,0-0.1,0-0.1-0.1c0,0,0-0.1,0-0.1c0,0,0,0,0.1,0c0.1,0,0.2,0,0.3,0c0.1,0,0.2,0,0.3,0c0.1,0,0.2,0,0.4,0c0.1,0,0.2,0,0.3,0
			c0.3,0,0.5,0,0.8,0c0.1,0,0.3,0,0.4,0c0.2,0,0.3,0,0.4,0c0.3,0,0.5,0.1,0.9,0.2c0.3,0.1,0.6,0.2,0.9,0.4c0.3,0.2,0.5,0.4,0.7,0.6
			c0.2,0.2,0.3,0.5,0.4,0.8c0,0.1,0,0.2,0,0.3c0,0.1,0,0.2,0,0.3C83.7,75.9,83.6,76.3,83.4,76.6z M82.6,74.6
			c-0.2-0.3-0.4-0.6-0.6-0.8c-0.3-0.2-0.6-0.3-0.9-0.4c-0.3-0.1-0.7-0.2-1.1-0.2c-0.1,0-0.3,0-0.4,0c-0.1,0-0.3,0-0.4,0.1V77
			c0,0.2,0,0.3,0.1,0.4c0,0.1,0.1,0.2,0.2,0.2c0.1,0,0.2,0.1,0.3,0.1c0.1,0,0.3,0,0.4,0c0.3,0,0.7,0,1-0.1c0.3-0.1,0.6-0.2,0.8-0.4
			c0.2-0.2,0.4-0.4,0.6-0.6c0.1-0.3,0.2-0.6,0.2-1C82.9,75.2,82.8,74.9,82.6,74.6z"/>
		<path id="XMLID_401_" class="st0" d="M87.5,77.9L87.5,77.9c-0.1,0-0.2,0.1-0.3,0.1c-0.1,0-0.2,0-0.3,0c-0.1,0-0.2,0-0.3,0
			c-0.1,0-0.2,0-0.2,0c-0.1,0-0.2,0-0.3,0c-0.1,0-0.2,0-0.3,0c-0.2,0-0.5,0-0.7,0c-0.2,0-0.4,0-0.7,0c-0.1,0-0.1,0-0.1-0.1
			c0-0.1,0-0.1,0.1-0.1c0.2,0,0.3-0.1,0.3-0.2c0.1-0.1,0.1-0.2,0.1-0.4v-3.9c0-0.1,0-0.2-0.1-0.2c-0.1,0-0.1-0.1-0.2-0.1
			c-0.1,0-0.1,0-0.2,0c-0.1,0-0.1,0-0.2-0.1c-0.1,0-0.1-0.1,0-0.1c0,0,0.1-0.1,0.1-0.1c0.1,0,0.1,0,0.2,0c0.1,0,0.2,0,0.3,0
			c0.2,0,0.4,0,0.6,0c0.2,0,0.4,0,0.6,0c0.3,0,0.6,0,0.9,0c0.3,0,0.4,0,0.5-0.1c0,0,0.1,0,0.1,0c0,0,0,0,0,0.1c0,0.1,0,0.2-0.1,0.3
			c0,0.1-0.1,0.2-0.1,0.3c0,0,0,0.1,0,0.1c0,0,0,0.1,0,0.1c0,0-0.1,0.1-0.1,0.1c-0.1,0-0.1,0-0.1-0.1c0-0.1,0-0.2-0.1-0.3
			c0-0.1-0.1-0.1-0.2-0.1c-0.1,0-0.1-0.1-0.2-0.1c-0.1,0-0.2,0-0.3,0c-0.1,0-0.1,0-0.1,0c0,0-0.1,0-0.1,0c0,0-0.1,0-0.1,0
			c-0.1,0-0.1,0-0.2,0h-0.2v1.8h1.1c0,0,0.1,0,0.1,0c0.1,0,0.1,0,0.2-0.1h0c0,0,0.1-0.1,0.1-0.1c0,0,0.1-0.1,0.1-0.1
			c0,0,0.1,0,0.1,0s0,0,0,0.1c0,0.1,0,0.2,0,0.3c0,0.1,0,0.2,0,0.3c0,0.1,0,0.2,0,0.2c0,0.1,0,0.2,0,0.2c0,0,0,0.1-0.1,0.1
			c0,0-0.1,0-0.1,0c-0.1,0-0.1-0.1-0.1-0.1c0,0,0,0,0-0.1c0-0.1,0-0.1-0.1-0.2c0-0.1,0-0.1-0.1-0.1c0,0-0.1,0-0.2-0.1
			c-0.1,0-0.2,0-0.3,0c-0.1,0-0.2,0-0.3,0c-0.1,0-0.2,0-0.3,0h-0.1v1.8c0.1,0.1,0.2,0.2,0.4,0.3c0.2,0.1,0.4,0.1,0.5,0.1
			c0.2,0,0.4,0,0.6-0.1c0.2-0.1,0.3-0.3,0.3-0.5c0,0,0,0,0,0c0,0,0,0,0.1,0c0,0,0,0,0.1,0c0,0,0,0,0,0.1L87.5,77.9z"/>
		<g id="XMLID_1_">
			<path id="XMLID_2_" class="st0" d="M93.6,80.5c-0.6,0-1.2,0-1.7,0c-0.6,0-1.2,0-1.7,0c-0.1,0-0.1,0-0.1-0.1c0-0.1,0-0.1,0.1-0.1
				c0.1,0,0.2,0,0.2,0c0.1,0,0.2,0,0.2,0c0.1,0,0.2,0,0.3,0c0.1,0,0.2,0,0.3-0.1c0.1,0,0.1-0.1,0.2-0.2c0-0.1,0.1-0.2,0.1-0.4v-5.7
				c0,0-0.1-0.1-0.2-0.1c-0.1,0-0.2,0-0.2,0.1c-0.1,0-0.2,0.1-0.3,0.1c-0.1,0-0.2,0.1-0.3,0.1c-0.1,0-0.2,0.1-0.4,0.1
				c-0.1,0-0.1,0-0.2-0.1c0-0.1,0-0.1,0-0.1c0.4-0.3,0.8-0.6,1.2-0.9c0.4-0.3,0.8-0.5,1.3-0.7c0.1,0,0.1,0,0.2,0c0,0,0.1,0,0.1,0.1
				c0,0.1,0,0.3,0,0.4c0,0.1,0,0.3,0,0.4v0.2c0,0.5,0,1,0,1.5c0,0.5,0,1,0,1.5c0,0.5,0,1,0,1.5c0,0.5,0,1,0,1.5c0,0.2,0,0.3,0.1,0.4
				c0,0.1,0.1,0.2,0.2,0.2c0.1,0,0.1,0.1,0.2,0.1c0.1,0,0.2,0,0.2,0c0.1,0,0.2,0,0.3,0.1c0.1,0,0.2,0.1,0.2,0.1L93.6,80.5z"/>
			<path id="XMLID_4_" class="st0" d="M99.3,79c-0.1,0.3-0.3,0.6-0.6,0.8c-0.2,0.2-0.5,0.4-0.8,0.6c-0.3,0.1-0.6,0.2-1,0.2
				c-0.3,0-0.6-0.1-0.9-0.2c-0.3-0.1-0.6-0.2-0.8-0.4c-0.2-0.2-0.4-0.4-0.6-0.7c-0.1-0.3-0.2-0.6-0.2-0.9c0-0.5,0.2-1,0.5-1.4
				c0.3-0.4,0.7-0.7,1.2-0.8c-0.3-0.2-0.6-0.4-0.9-0.6c-0.2-0.3-0.4-0.6-0.4-1c0-0.3,0.1-0.6,0.2-0.9c0.1-0.3,0.3-0.5,0.5-0.7
				c0.2-0.2,0.5-0.4,0.8-0.5c0.3-0.1,0.6-0.2,0.9-0.2c0.2,0,0.5,0,0.7,0.1s0.5,0.2,0.6,0.4c0.2,0.2,0.3,0.4,0.5,0.6
				c0.1,0.2,0.2,0.5,0.2,0.7c0,0.4-0.1,0.7-0.3,1.1c-0.2,0.3-0.5,0.6-0.8,0.8c0.5,0.2,0.8,0.4,1.1,0.8c0.3,0.3,0.4,0.8,0.4,1.3
				C99.5,78.4,99.4,78.7,99.3,79z M98.2,77.7c-0.1-0.2-0.2-0.4-0.3-0.6c-0.1-0.2-0.3-0.3-0.5-0.4c-0.2-0.1-0.4-0.2-0.6-0.2
				c-0.4,0-0.8,0.1-1,0.4c-0.2,0.3-0.4,0.7-0.4,1.1c0,0.2,0,0.5,0.1,0.7c0.1,0.2,0.2,0.4,0.3,0.6c0.1,0.2,0.3,0.3,0.5,0.4
				c0.2,0.1,0.4,0.2,0.7,0.2c0.2,0,0.4-0.1,0.5-0.2c0.2-0.1,0.3-0.2,0.4-0.4c0.1-0.2,0.2-0.3,0.2-0.5c0.1-0.2,0.1-0.4,0.1-0.6
				C98.3,78.1,98.3,77.9,98.2,77.7z M98,73.7c0-0.2-0.1-0.3-0.2-0.4c-0.1-0.1-0.2-0.2-0.3-0.3c-0.1-0.1-0.3-0.1-0.5-0.1
				c-0.3,0-0.6,0.1-0.8,0.3s-0.4,0.5-0.4,0.8c0,0.2,0,0.4,0.1,0.6c0.1,0.2,0.2,0.4,0.3,0.5c0.1,0.2,0.3,0.3,0.5,0.4
				c0.2,0.1,0.4,0.1,0.6,0.1c0.3-0.1,0.5-0.3,0.6-0.6c0.1-0.3,0.2-0.5,0.2-0.8C98.1,74.1,98.1,73.9,98,73.7z"/>
			<path id="XMLID_8_" class="st0" d="M104.5,74.2c0,0.1-0.1,0.1-0.1,0.1c-0.1,0-0.1,0-0.2,0c0,0-0.1-0.1-0.1-0.1
				c0-0.1,0-0.1-0.1-0.1c0-0.1-0.1-0.2-0.1-0.3c-0.1-0.1-0.2-0.2-0.3-0.2h-2.1c0,0.2,0,0.4-0.1,0.6c0,0.2,0,0.4,0,0.6
				c0.4,0,0.8,0.1,1.2,0.2c0.4,0.2,0.7,0.4,1,0.7c0.3,0.3,0.5,0.6,0.7,1c0.2,0.4,0.2,0.8,0.2,1.2c0,0.4-0.1,0.8-0.3,1.1
				c-0.2,0.3-0.4,0.6-0.7,0.9c-0.3,0.2-0.6,0.4-1,0.5c-0.4,0.1-0.8,0.2-1.2,0.2c-0.2,0-0.4,0-0.6,0c-0.2,0-0.4-0.1-0.6-0.2
				c-0.1,0-0.1-0.1-0.1-0.1c0-0.1,0-0.2,0-0.3c0-0.1,0-0.2,0-0.3c0-0.2,0-0.4,0-0.6c0-0.2,0-0.4,0.1-0.6c0-0.1,0.1-0.1,0.2-0.1
				c0.1,0,0.1,0,0.1,0.1c0,0.4,0.1,0.7,0.2,1c0.2,0.3,0.5,0.4,0.9,0.4c0.2,0,0.5,0,0.7-0.1c0.2-0.1,0.4-0.2,0.6-0.4
				c0.2-0.2,0.3-0.3,0.5-0.6c0.1-0.2,0.2-0.4,0.2-0.7c0-0.1,0-0.3-0.1-0.4c0-0.1-0.1-0.2-0.1-0.3c-0.3-0.6-0.7-1-1.1-1.3
				c-0.4-0.3-0.9-0.4-1.5-0.5c-0.1,0-0.1-0.1-0.1-0.1c0-0.5,0-1,0.1-1.4c0-0.5,0.1-0.9,0.2-1.4c0,0,0,0,0.1-0.1c0,0,0.1,0,0.1,0h3
				c0,0,0.1,0,0.2-0.1c0.1,0,0.2,0,0.3,0l0.2,0.1C104.6,73.2,104.6,73.7,104.5,74.2z"/>
			<path id="XMLID_10_" class="st0" d="M109.6,74.2c0,0.1-0.1,0.1-0.1,0.1c-0.1,0-0.1,0-0.2,0c0,0-0.1-0.1-0.1-0.1
				c0-0.1,0-0.1-0.1-0.1c0-0.1-0.1-0.2-0.1-0.3c-0.1-0.1-0.2-0.2-0.3-0.2h-2.1c0,0.2,0,0.4-0.1,0.6c0,0.2,0,0.4,0,0.6
				c0.4,0,0.8,0.1,1.2,0.2c0.4,0.2,0.7,0.4,1,0.7c0.3,0.3,0.5,0.6,0.7,1c0.2,0.4,0.2,0.8,0.2,1.2c0,0.4-0.1,0.8-0.3,1.1
				c-0.2,0.3-0.4,0.6-0.7,0.9c-0.3,0.2-0.6,0.4-1,0.5c-0.4,0.1-0.8,0.2-1.2,0.2c-0.2,0-0.4,0-0.6,0c-0.2,0-0.4-0.1-0.6-0.2
				c-0.1,0-0.1-0.1-0.1-0.1c0-0.1,0-0.2,0-0.3c0-0.1,0-0.2,0-0.3c0-0.2,0-0.4,0-0.6c0-0.2,0-0.4,0.1-0.6c0-0.1,0.1-0.1,0.2-0.1
				c0.1,0,0.1,0,0.1,0.1c0,0.4,0.1,0.7,0.2,1c0.2,0.3,0.5,0.4,0.9,0.4c0.2,0,0.5,0,0.7-0.1c0.2-0.1,0.4-0.2,0.6-0.4
				c0.2-0.2,0.3-0.3,0.5-0.6c0.1-0.2,0.2-0.4,0.2-0.7c0-0.1,0-0.3-0.1-0.4c0-0.1-0.1-0.2-0.1-0.3c-0.3-0.6-0.7-1-1.1-1.3
				c-0.4-0.3-0.9-0.4-1.5-0.5c-0.1,0-0.1-0.1-0.1-0.1c0-0.5,0-1,0.1-1.4c0-0.5,0.1-0.9,0.2-1.4c0,0,0,0,0.1-0.1c0,0,0.1,0,0.1,0h3
				c0,0,0.1,0,0.2-0.1c0.1,0,0.2,0,0.3,0l0.2,0.1C109.8,73.2,109.7,73.7,109.6,74.2z"/>
		</g>
	</g>
	<g id="XMLID_233_">
		<g id="XMLID_319_">
			<path id="XMLID_180_" class="st1" d="M72.3,22.4c5,0,10.1,0,15.1,0c5,0,10.1,0,15.1,0c0,9.6-0.3,19.1,0,28.7
				c0.1,2.7-1,3.3-3.2,3.2c-2.4-0.1-4.8-0.1-7.2,0.1c-2.3,0.2-4.1,0.9-4.7,2.2c0,0,0,0,0,0c0,0,0,0,0,0c-0.6-1.3-2.4-2-4.7-2.2
				c-2.4-0.2-4.8-0.2-7.2-0.1c-2.2,0.1-3.3-0.5-3.2-3.2C72.6,41.5,72.3,31.9,72.3,22.4z"/>
			<path id="XMLID_386_" class="st2" d="M96,46.2c-0.2-5.3,0-10.6,0-15.9c-2.8,0-5.7,0-8.5,0c-2.8,0-5.7,0-8.5,0
				c0,5.3,0.2,10.6,0,15.9c0,1.5,0.6,1.8,1.8,1.8c1.3,0,2.7-0.1,4,0.1c1.3,0.1,2.3,0.5,2.6,1.2c0,0,0,0,0,0c0,0,0,0,0,0
				c0.4-0.7,1.3-1.1,2.6-1.2c1.3-0.1,2.7-0.1,4-0.1C95.4,48,96,47.7,96,46.2L96,46.2L96,46.2z"/>
			<path id="XMLID_383_" class="st3" d="M103.7,51.8c-0.3-10.2,0-20.4,0-30.6c-5.4,0-10.8,0-16.2,0c-5.4,0-10.8,0-16.3,0
				c0,10.2,0.3,20.4,0,30.6c-0.1,2.9,1.1,3.5,3.4,3.4c2.6-0.1,5.2-0.1,7.7,0.1c2.5,0.2,4.4,1,5.1,2.4l0,0l0,0
				c0.7-1.4,2.6-2.2,5.1-2.4c2.6-0.2,5.2-0.2,7.7-0.1C102.6,55.3,103.8,54.7,103.7,51.8L103.7,51.8L103.7,51.8z M99.4,54.2
				c-2.4-0.1-4.8-0.1-7.2,0.1c-2.3,0.2-4.1,0.9-4.7,2.2c0,0,0,0,0,0c0,0,0,0,0,0c-0.6-1.3-2.4-2-4.7-2.2c-2.4-0.2-4.8-0.2-7.2-0.1
				c-2.2,0.1-3.3-0.5-3.2-3.2c0.3-9.5,0-19.1,0-28.7c5,0,10.1,0,15.1,0c5,0,10.1,0,15.1,0c0,9.6-0.3,19.1,0,28.7
				C102.7,53.7,101.6,54.3,99.4,54.2L99.4,54.2L99.4,54.2z"/>
			<g id="XMLID_379_">
				<path id="XMLID_176_" class="st3" d="M73.8,26.1v2.8h0.7c0-0.3-0.2-1.4,0.3-2c0.2-0.2,0.4-0.3,0.7-0.3c0.3,0,0.5,0.1,0.7,0.3
					c0.5,0.6,0.3,1.7,0.3,2l0.7,0v-2.8H73.8L73.8,26.1z"/>
				<path id="XMLID_175_" class="st3" d="M76,27.1c-0.1-0.1-0.3-0.2-0.4-0.2c-0.2,0-0.4,0.1-0.5,0.2c-0.4,0.4-0.3,1.4-0.2,1.8l1.4,0
					C76.3,28.5,76.4,27.5,76,27.1L76,27.1L76,27.1z"/>
				<polygon id="XMLID_174_" class="st3" points="76.9,24.1 76.9,25 76,25 76,24.1 75.2,24.1 75.2,25 74.3,25 74.3,24.1 73.5,24.1 
					73.5,25 73.5,25.2 73.5,25.7 77.7,25.7 77.7,24.1 76.9,24.1 				"/>
			</g>
			<g id="XMLID_375_">
				<path id="XMLID_173_" class="st3" d="M85.7,26.1v2.8h0.7c0-0.3-0.2-1.4,0.3-2c0.2-0.2,0.4-0.3,0.7-0.3c0.3,0,0.5,0.1,0.7,0.3
					c0.5,0.6,0.3,1.7,0.3,2l0.7,0v-2.8H85.7L85.7,26.1z"/>
				<path id="XMLID_172_" class="st3" d="M87.9,27.1c-0.1-0.1-0.3-0.2-0.4-0.2c-0.2,0-0.4,0.1-0.5,0.2c-0.4,0.4-0.3,1.4-0.2,1.8
					l1.4,0C88.2,28.5,88.3,27.5,87.9,27.1L87.9,27.1L87.9,27.1z"/>
				<polygon id="XMLID_171_" class="st3" points="88.8,24.1 88.8,25 87.9,25 87.9,24.1 87.1,24.1 87.1,25 86.2,25 86.2,24.1 
					85.4,24.1 85.4,25 85.4,25.2 85.4,25.7 89.6,25.7 89.6,24.1 88.8,24.1 				"/>
			</g>
			<g id="XMLID_371_">
				<path id="XMLID_170_" class="st3" d="M97.6,26.1v2.8h0.7c0-0.3-0.2-1.4,0.3-2c0.2-0.2,0.4-0.3,0.7-0.3c0.3,0,0.5,0.1,0.7,0.3
					c0.5,0.6,0.3,1.7,0.3,2l0.7,0v-2.8H97.6L97.6,26.1z"/>
				<path id="XMLID_169_" class="st3" d="M99.8,27.1c-0.1-0.1-0.3-0.2-0.4-0.2c-0.2,0-0.4,0.1-0.5,0.2c-0.4,0.4-0.3,1.4-0.2,1.8
					l1.4,0C100.1,28.5,100.1,27.5,99.8,27.1L99.8,27.1L99.8,27.1z"/>
				<polygon id="XMLID_168_" class="st3" points="100.6,24 100.6,25 99.7,25 99.7,24 98.9,24 98.9,25 98.1,25 98.1,24 97.2,24 
					97.2,25 97.2,25.2 97.2,25.7 101.4,25.7 101.4,24 100.6,24 				"/>
			</g>
			<g id="XMLID_367_">
				<path id="XMLID_167_" class="st3" d="M97.6,37.4v2.8h0.7c0-0.3-0.2-1.4,0.3-2c0.2-0.2,0.4-0.3,0.7-0.3c0.3,0,0.5,0.1,0.7,0.3
					c0.5,0.6,0.3,1.7,0.3,2l0.7,0v-2.8H97.6L97.6,37.4z"/>
				<path id="XMLID_166_" class="st3" d="M99.8,38.5c-0.1-0.1-0.3-0.2-0.4-0.2c-0.2,0-0.4,0.1-0.5,0.2c-0.4,0.4-0.3,1.4-0.2,1.8
					l1.4,0C100.1,39.9,100.1,38.9,99.8,38.5L99.8,38.5L99.8,38.5z"/>
				<polygon id="XMLID_165_" class="st3" points="100.6,35.4 100.6,36.3 99.7,36.3 99.7,35.4 98.9,35.4 98.9,36.3 98.1,36.3 
					98.1,35.4 97.2,35.4 97.2,36.3 97.2,36.6 97.2,37.1 101.4,37.1 101.4,35.4 100.6,35.4 				"/>
			</g>
			<g id="XMLID_363_">
				<path id="XMLID_164_" class="st3" d="M97.6,49.5v2.8h0.7c0-0.3-0.2-1.4,0.3-2c0.2-0.2,0.4-0.3,0.7-0.3c0.3,0,0.5,0.1,0.7,0.3
					c0.5,0.6,0.3,1.7,0.3,2l0.7,0v-2.8H97.6L97.6,49.5z"/>
				<path id="XMLID_163_" class="st3" d="M99.8,50.5c-0.1-0.1-0.3-0.2-0.4-0.2c-0.2,0-0.4,0.1-0.5,0.2c-0.4,0.4-0.3,1.4-0.2,1.8
					l1.4,0C100.1,52,100.1,50.9,99.8,50.5L99.8,50.5L99.8,50.5z"/>
				<polygon id="XMLID_162_" class="st3" points="100.6,47.5 100.6,48.4 99.7,48.4 99.7,47.5 98.9,47.5 98.9,48.4 98.1,48.4 
					98.1,47.5 97.2,47.5 97.2,48.4 97.2,48.7 97.2,49.2 101.4,49.2 101.4,47.5 100.6,47.5 				"/>
			</g>
			<g id="XMLID_359_">
				<path id="XMLID_161_" class="st3" d="M73.8,49.5v2.8h0.7c0-0.3-0.2-1.4,0.3-2c0.2-0.2,0.4-0.3,0.7-0.3c0.3,0,0.5,0.1,0.7,0.3
					c0.5,0.6,0.3,1.7,0.3,2l0.7,0v-2.8H73.8L73.8,49.5z"/>
				<path id="XMLID_160_" class="st3" d="M76,50.5c-0.1-0.1-0.3-0.2-0.4-0.2c-0.2,0-0.4,0.1-0.5,0.2c-0.4,0.4-0.3,1.4-0.2,1.8l1.4,0
					C76.3,52,76.4,50.9,76,50.5L76,50.5L76,50.5z"/>
				<polygon id="XMLID_159_" class="st3" points="76.9,47.5 76.9,48.4 76,48.4 76,47.5 75.2,47.5 75.2,48.4 74.3,48.4 74.3,47.5 
					73.5,47.5 73.5,48.4 73.5,48.7 73.5,49.2 77.7,49.2 77.7,47.5 76.9,47.5 				"/>
			</g>
			<g id="XMLID_355_">
				<path id="XMLID_158_" class="st3" d="M73.8,37.4v2.8h0.7c0-0.3-0.2-1.4,0.3-2c0.2-0.2,0.4-0.3,0.7-0.3c0.3,0,0.5,0.1,0.7,0.3
					c0.5,0.6,0.3,1.7,0.3,2l0.7,0v-2.8H73.8L73.8,37.4z"/>
				<path id="XMLID_157_" class="st3" d="M76,38.5c-0.1-0.1-0.3-0.2-0.4-0.2c-0.2,0-0.4,0.1-0.5,0.2c-0.4,0.4-0.3,1.4-0.2,1.8l1.4,0
					C76.3,39.9,76.4,38.9,76,38.5L76,38.5L76,38.5z"/>
				<polygon id="XMLID_156_" class="st3" points="76.9,35.4 76.9,36.3 76,36.3 76,35.4 75.2,35.4 75.2,36.3 74.3,36.3 74.3,35.4 
					73.5,35.4 73.5,36.3 73.5,36.6 73.5,37.1 77.7,37.1 77.7,35.4 76.9,35.4 				"/>
			</g>
			<g id="XMLID_348_">
				<path id="XMLID_155_" class="st4" d="M89.4,31.8h-3.9v2.6h0c0,1,0.9,1.8,2,1.8c1.1,0,1.9-0.8,2-1.8V31.8z"/>
				<circle id="XMLID_154_" class="st2" cx="88.5" cy="34.8" r="0.5"/>
				<circle id="XMLID_153_" class="st2" cx="86.4" cy="34.8" r="0.5"/>
				<circle id="XMLID_152_" class="st2" cx="86.4" cy="32.6" r="0.5"/>
				<circle id="XMLID_151_" class="st2" cx="88.5" cy="32.6" r="0.5"/>
				<circle id="XMLID_150_" class="st2" cx="87.5" cy="33.7" r="0.5"/>
			</g>
			<g id="XMLID_341_">
				<path id="XMLID_149_" class="st4" d="M89.4,37.2h-3.9v2.6h0c0,1,0.9,1.8,2,1.8c1.1,0,1.9-0.8,2-1.8V37.2z"/>
				<circle id="XMLID_148_" class="st2" cx="88.5" cy="40.2" r="0.5"/>
				<circle id="XMLID_147_" class="st2" cx="86.4" cy="40.2" r="0.5"/>
				<circle id="XMLID_146_" class="st2" cx="86.4" cy="38" r="0.5"/>
				<circle id="XMLID_145_" class="st2" cx="88.5" cy="38" r="0.5"/>
				<circle id="XMLID_144_" class="st2" cx="87.5" cy="39.1" r="0.5"/>
			</g>
			<g id="XMLID_334_">
				<path id="XMLID_143_" class="st4" d="M84.4,37.2h-3.9v2.6h0c0,1,0.9,1.8,2,1.8c1.1,0,1.9-0.8,2-1.8V37.2z"/>
				<circle id="XMLID_142_" class="st2" cx="83.5" cy="40.2" r="0.5"/>
				<circle id="XMLID_141_" class="st2" cx="81.5" cy="40.2" r="0.5"/>
				<circle id="XMLID_140_" class="st2" cx="81.5" cy="38" r="0.5"/>
				<circle id="XMLID_139_" class="st2" cx="83.5" cy="38" r="0.5"/>
				<circle id="XMLID_138_" class="st2" cx="82.5" cy="39.1" r="0.5"/>
			</g>
			<g id="XMLID_327_">
				<path id="XMLID_137_" class="st4" d="M94.4,37.2h-3.9v2.6h0c0,1,0.9,1.8,2,1.8c1.1,0,1.9-0.8,2-1.8V37.2z"/>
				<circle id="XMLID_136_" class="st2" cx="93.5" cy="40.2" r="0.5"/>
				<circle id="XMLID_135_" class="st2" cx="91.4" cy="40.2" r="0.5"/>
				<circle id="XMLID_134_" class="st2" cx="91.4" cy="38" r="0.5"/>
				<circle id="XMLID_133_" class="st2" cx="93.5" cy="38" r="0.5"/>
				<circle id="XMLID_132_" class="st2" cx="92.4" cy="39.1" r="0.5"/>
			</g>
			<g id="XMLID_320_">
				<path id="XMLID_131_" class="st4" d="M89.4,42.7h-3.9v2.6h0c0,1,0.9,1.8,2,1.8c1.1,0,1.9-0.8,2-1.8V42.7z"/>
				<circle id="XMLID_130_" class="st2" cx="88.5" cy="45.7" r="0.5"/>
				<circle id="XMLID_129_" class="st2" cx="86.4" cy="45.7" r="0.5"/>
				<circle id="XMLID_128_" class="st2" cx="86.4" cy="43.5" r="0.5"/>
				<circle id="XMLID_127_" class="st2" cx="88.5" cy="43.5" r="0.5"/>
				<circle id="XMLID_126_" class="st2" cx="87.5" cy="44.6" r="0.5"/>
			</g>
		</g>
		<g id="XMLID_259_">
			<path id="XMLID_316_" class="st1" d="M87.4,9.8L87.4,9.8C87.4,9.8,87.4,9.8,87.4,9.8L87.4,9.8C87.4,9.8,87.5,9.8,87.4,9.8
				L87.4,9.8L87.4,9.8L87.4,9.8L87.4,9.8L87.4,9.8z M87.4,9.8c-0.2,0-1.6-0.1-4.1,0.8c-2.7,0.9-6.3,1.8-7.2,2.5
				c-0.9,0.6-1.6,1.4-0.6,2.7c1,1.3,0.6,2.7,2.6,2.9c2,0.2,8.7,0.3,9.3,0.3v0l0,0h0v0l0,0h0c0.6,0,7.3-0.1,9.3-0.3
				c2-0.2,1.6-1.6,2.6-2.9c1-1.3,0.3-2.1-0.6-2.7c-0.9-0.6-4.5-1.5-7.2-2.5C89,9.7,87.6,9.8,87.4,9.8L87.4,9.8z"/>
			<path id="XMLID_123_" class="st3" d="M78.1,18.7c0,0.1,3.9-0.7,9.3-0.8v0c5.4,0.1,9.3,0.9,9.3,0.8l0,0c0,0-0.7,1.6-0.9,1.9
				c-0.2,0.3-0.3,0.6-0.8,0.6c0,0-6.7,0.1-7.5,0.1v0c-0.8,0-7.5-0.1-7.5-0.1c-0.5,0-0.6-0.3-0.8-0.6C78.9,20.3,78.1,18.7,78.1,18.7
				L78.1,18.7z"/>
			<polygon id="XMLID_122_" class="st3" points="87,1.3 87.4,1.3 87.4,1.3 87.8,1.3 87.8,2.2 88.6,2.2 88.6,3.1 87.8,3.1 87.8,3.7 
				87.4,3.7 87.4,3.7 87,3.7 87,3.1 86.2,3.1 86.2,2.2 87,2.2 			"/>
			<ellipse id="XMLID_121_" class="st3" cx="82.6" cy="15.7" rx="0.7" ry="0.8"/>
			<ellipse id="XMLID_120_" class="st3" cx="86.1" cy="15.6" rx="0.7" ry="0.8"/>
			<path id="XMLID_119_" class="st3" d="M87.4,11L87.4,11L87.4,11L87.4,11c0.4,0,0.7,0.3,0.7,0.8c0,0.4-0.3,0.8-0.7,0.8l0,0v0l0,0
				c-0.4,0-0.7-0.3-0.7-0.8C86.7,11.4,87,11,87.4,11z"/>
			<path id="XMLID_118_" class="st3" d="M87.4,9.3L87.4,9.3L87.4,9.3L87.4,9.3c0.4,0,0.7,0.3,0.7,0.8c0,0.4-0.3,0.8-0.7,0.8h0v0h0
				c-0.4,0-0.7-0.3-0.7-0.8C86.7,9.6,87,9.3,87.4,9.3z"/>
			<path id="XMLID_117_" class="st3" d="M87.4,7.6L87.4,7.6L87.4,7.6L87.4,7.6c0.4,0,0.7,0.3,0.7,0.8c0,0.4-0.3,0.8-0.7,0.8l0,0v0
				l0,0c-0.4,0-0.7-0.3-0.7-0.8C86.7,7.9,87,7.6,87.4,7.6z"/>
			<path id="XMLID_116_" class="st3" d="M87.4,6L87.4,6L87.4,6L87.4,6c0.3,0,0.5,0.2,0.5,0.5c0,0.3-0.2,0.5-0.5,0.5h0v0l0,0
				c-0.3,0-0.5-0.2-0.5-0.5C86.9,6.3,87.1,6,87.4,6z"/>
			<ellipse id="XMLID_115_" class="st3" cx="84.4" cy="15.3" rx="0.3" ry="0.3"/>
			<ellipse id="XMLID_114_" class="st3" cx="80.9" cy="10.6" rx="0.7" ry="0.7"/>
			<ellipse id="XMLID_113_" class="st3" cx="80.5" cy="12" rx="0.4" ry="0.4"/>
			<ellipse id="XMLID_112_" class="st3" cx="80.6" cy="13.1" rx="0.3" ry="0.3"/>
			<path id="XMLID_111_" class="st3" d="M87.4,4L87.4,4L87.4,4L87.4,4c0.5,0,0.8,0.4,0.8,0.9c0,0.5-0.4,0.9-0.8,0.9l0,0v0h0
				c-0.5,0-0.8-0.4-0.8-0.9C86.6,4.3,87,4,87.4,4z"/>
			<path id="XMLID_110_" class="st3" d="M81.5,15.1c0,0.4-0.3,0.7-0.7,0.7c-0.4,0-0.7-0.3-0.7-0.7c0-0.1,0-0.2,0.1-0.3
				c-1.9-2-1-4.1-1-4.1l0,0c0.1,0-1.9,0.2-2.5,1.9c-0.5,1.3,0.2,2.3,0.5,2.8c0,0,0,0,0,0c0.2,0,0.4,0.2,0.4,0.4
				c0,0.2-0.2,0.4-0.4,0.4c-0.2,0-0.4-0.2-0.4-0.4c-0.7-0.7-1.4-2.5-0.3-4c1.1-1.7,3.4-1.6,3.4-1.6s-0.7,2.3,1,4.3c0,0,0.1,0,0.1,0
				C81.2,14.4,81.5,14.7,81.5,15.1z"/>
			<path id="XMLID_109_" class="st3" d="M87.4,14.9c-0.2,0-0.3,0.1-0.3,0.3c0,0.2,0.1,0.3,0.3,0.3v0c0.2,0,0.3-0.1,0.3-0.3
				C87.7,15.1,87.6,14.9,87.4,14.9L87.4,14.9z"/>
			<ellipse id="XMLID_108_" class="st3" cx="74.6" cy="14.5" rx="0.7" ry="0.7"/>
			<ellipse id="XMLID_107_" class="st3" cx="74.6" cy="12.4" rx="0.7" ry="0.7"/>
			<ellipse id="XMLID_106_" class="st3" cx="75.8" cy="10.7" rx="0.7" ry="0.7"/>
			<ellipse id="XMLID_105_" class="st3" cx="77.4" cy="9.6" rx="0.7" ry="0.7"/>
			<ellipse id="XMLID_104_" class="st3" cx="79.1" cy="9.1" rx="0.7" ry="0.7"/>
			<ellipse id="XMLID_103_" class="st3" cx="80.6" cy="9" rx="0.7" ry="0.7"/>
			<ellipse id="XMLID_102_" class="st3" cx="79.1" cy="16.1" rx="0.7" ry="0.7"/>
			<ellipse id="XMLID_101_" class="st3" cx="82.2" cy="9.3" rx="0.7" ry="0.7"/>
			<ellipse id="XMLID_100_" class="st3" cx="83.4" cy="8.3" rx="0.7" ry="0.7"/>
			<ellipse id="XMLID_99_" class="st3" cx="84.6" cy="7.1" rx="0.7" ry="0.7"/>
			<ellipse id="XMLID_98_" class="st3" cx="85.7" cy="6" rx="0.7" ry="0.7"/>
			<path id="XMLID_97_" class="st3" d="M74.6,15.6c0,0,0.1,0,0.1,0c0.8-0.5,1.7,0.1,1.8,1.1c0.1,0.1,0.2,0.2,0.2,0.4
				c0,0.3-0.2,0.5-0.5,0.5c-0.3,0-0.5-0.2-0.5-0.5c0-0.1,0.1-0.3,0.2-0.4c-0.2-0.7-0.6-1-1.1-0.8c0,0.2-0.1,0.3-0.3,0.3
				c-0.2,0-0.3-0.1-0.3-0.3C74.3,15.8,74.4,15.6,74.6,15.6z"/>
			<ellipse id="XMLID_96_" class="st3" cx="92.2" cy="15.7" rx="0.7" ry="0.8"/>
			<ellipse id="XMLID_95_" class="st3" cx="88.8" cy="15.6" rx="0.7" ry="0.8"/>
			<path id="XMLID_94_" class="st3" d="M87.4,13.1L87.4,13.1L87.4,13.1L87.4,13.1c-0.4,0-0.7,0.3-0.7,0.8c0,0.4,0.3,0.8,0.7,0.8h0v0
				h0c0.4,0,0.7-0.3,0.7-0.8C88.2,13.4,87.8,13.1,87.4,13.1z"/>
			<ellipse id="XMLID_93_" class="st3" cx="90.5" cy="15.3" rx="0.3" ry="0.3"/>
			<ellipse id="XMLID_92_" class="st3" cx="94" cy="10.6" rx="0.7" ry="0.7"/>
			<ellipse id="XMLID_91_" class="st3" cx="94.3" cy="12" rx="0.4" ry="0.4"/>
			<ellipse id="XMLID_90_" class="st3" cx="94.2" cy="13.1" rx="0.3" ry="0.3"/>
			<path id="XMLID_89_" class="st3" d="M93.3,14.1c0,0.4-0.3,0.7-0.7,0.7c-0.4,0-0.7-0.3-0.7-0.7c0-0.4,0.3-0.7,0.7-0.7
				c0,0,0.1,0,0.1,0c0.2-0.3,0.5-1.2-0.6-2.2c-1.3-1.3-2.8-2.8-3-3c0,0,2.5,5.5-1.7,5.9h0c0,0,0,0,0,0v0c0,0,0,0,0,0h0
				c-4.2-0.4-1.7-5.9-1.7-5.9c-0.2,0.2-1.6,1.7-3,3c-1,1-0.7,1.9-0.6,2.2c0,0,0.1,0,0.1,0c0.4,0,0.7,0.3,0.7,0.7
				c0,0.4-0.3,0.7-0.7,0.7c-0.4,0-0.7-0.3-0.7-0.7c0-0.1,0-0.1,0-0.2c-0.2-0.3-0.9-1.7,0.7-3.3c1.9-1.8,4-3.9,4.4-4.1
				c0,0-2.4,6.4,0.8,6.6h0c0,0,0,0,0,0v0c0,0,0,0,0,0h0c3.2-0.2,0.8-6.6,0.8-6.6c0.3,0.2,2.5,2.3,4.4,4.1c1.6,1.6,0.9,3,0.7,3.3
				C93.3,14,93.3,14,93.3,14.1z"/>
			<path id="XMLID_88_" class="st3" d="M97.7,15.4c0.3-0.5,1-1.5,0.5-2.8c-0.6-1.6-2.7-1.9-2.5-1.9l0,0c0,0,0.9,2.1-1,4.1
				c0,0.1,0.1,0.2,0.1,0.3c0,0.4-0.3,0.7-0.7,0.7c-0.4,0-0.7-0.3-0.7-0.7c0-0.4,0.3-0.7,0.7-0.7c0,0,0.1,0,0.1,0c1.7-2,1-4.3,1-4.3
				s2.3,0,3.4,1.6c1,1.6,0.4,3.3-0.3,4c0,0.2-0.2,0.4-0.4,0.4c-0.2,0-0.4-0.2-0.4-0.4C97.2,15.6,97.4,15.4,97.7,15.4
				C97.6,15.4,97.6,15.4,97.7,15.4z"/>
			<ellipse id="XMLID_87_" class="st3" cx="100.3" cy="14.5" rx="0.7" ry="0.7"/>
			<ellipse id="XMLID_86_" class="st3" cx="100.2" cy="12.4" rx="0.7" ry="0.7"/>
			<ellipse id="XMLID_85_" class="st3" cx="99.1" cy="10.7" rx="0.7" ry="0.7"/>
			<ellipse id="XMLID_84_" class="st3" cx="97.5" cy="9.6" rx="0.7" ry="0.7"/>
			<ellipse id="XMLID_83_" class="st3" cx="95.7" cy="9.1" rx="0.7" ry="0.7"/>
			<ellipse id="XMLID_82_" class="st3" cx="94.2" cy="9" rx="0.7" ry="0.7"/>
			<ellipse id="XMLID_81_" class="st3" cx="95.7" cy="16.1" rx="0.7" ry="0.7"/>
			<ellipse id="XMLID_80_" class="st3" cx="92.6" cy="9.3" rx="0.7" ry="0.7"/>
			<ellipse id="XMLID_79_" class="st3" cx="91.4" cy="8.3" rx="0.7" ry="0.7"/>
			<ellipse id="XMLID_78_" class="st3" cx="90.3" cy="7.1" rx="0.7" ry="0.7"/>
			<ellipse id="XMLID_77_" class="st3" cx="89.1" cy="6" rx="0.7" ry="0.7"/>
			<path id="XMLID_76_" class="st3" d="M100.2,15.6c0,0-0.1,0-0.1,0c-0.8-0.5-1.7,0.2-1.8,1.1c-0.1,0.1-0.2,0.2-0.2,0.4
				c0,0.3,0.2,0.5,0.5,0.5c0.3,0,0.5-0.2,0.5-0.5c0-0.1-0.1-0.3-0.2-0.4c0.2-0.7,0.6-1,1.1-0.8c0,0.2,0.1,0.3,0.3,0.3
				c0.2,0,0.3-0.1,0.3-0.3C100.5,15.8,100.4,15.6,100.2,15.6z"/>
			<path id="XMLID_75_" class="st1" d="M95.7,20.6c-3.3-0.2-5.8-0.3-8.3-0.3v0c-2.5,0-5.1,0.1-8.3,0.3l0.2,0.3c0.1,0,0.1,0.1,0.5,0
				c2.9-0.2,5.3-0.3,7.6-0.3v0c2.3,0,4.7,0.1,7.6,0.3c0.4,0.1,0.4,0,0.5,0L95.7,20.6z"/>
			<polygon id="XMLID_74_" class="st1" points="95.9,19.8 95.9,19.6 94.3,20.2 93,19.2 93,19.2 93,19.5 93,19.5 94.3,20.4 			"/>
			<path id="XMLID_73_" class="st1" d="M90.3,19.1l0,0.2c0,0.4,0.3,0.6,0.7,0.6c0.3,0,0.7-0.2,0.7-0.6l0-0.3c0,0.3-0.3,0.6-0.7,0.6
				C90.6,19.7,90.4,19.5,90.3,19.1z"/>
			<polygon id="XMLID_72_" class="st1" points="79,19.8 78.9,19.6 80.5,20.2 81.9,19.2 81.9,19.2 81.9,19.5 81.9,19.5 80.5,20.4 			
				"/>
			<path id="XMLID_71_" class="st1" d="M84.5,19.1l0,0.2c0,0.4-0.3,0.6-0.7,0.6c-0.3,0-0.7-0.2-0.7-0.6l0-0.3c0,0.3,0.3,0.6,0.7,0.6
				C84.2,19.7,84.5,19.5,84.5,19.1z"/>
			<polygon id="XMLID_70_" class="st1" points="88.9,19.2 88.9,18.9 87.4,19.7 87.4,19.7 86,18.9 85.9,19.2 87.4,20 87.4,20 			"/>
			<path id="XMLID_69_" class="st1" d="M96.7,18.6c-3.3-0.5-6-0.8-9.2-0.8v-0.1c-3.1,0-6.2,0.4-9.4,0.9l0.2,0.3
				c3.1-0.5,6.1-0.7,9.2-0.7v0c3,0,6,0.2,9.1,0.7L96.7,18.6z"/>
			<path id="XMLID_68_" class="st3" d="M87.4,16.7c0,0,0.1,0,0.1,0c0.3,0,0.5,0.1,0.7,0.2c0.2,0.1,0.3,0.3,0.3,0.5l0,0
				c0.1,0.1,0.2,0.2,0.3,0.2c0.2,0,0.3-0.1,0.4-0.2c0.1-0.2,0.3-0.3,0.5-0.4c0.2-0.1,0.4-0.2,0.7-0.1c0.3,0,0.5,0.1,0.7,0.2
				c0.2,0.1,0.3,0.3,0.3,0.5c0.1,0.1,0.1,0.2,0.3,0.2c0.1,0,0.3-0.1,0.4-0.2c0.1-0.2,0.3-0.3,0.5-0.4c0.2-0.1,0.4-0.1,0.7-0.1
				c0.2,0,0.5,0.1,0.6,0.2c0.1,0.1,0.2,0.3,0.3,0.5l0,0c0,0.1,0.1,0.2,0.3,0.2c0.1,0,0.3,0,0.4-0.1c0.1-0.2,0.3-0.3,0.6-0.4
				c0.2-0.1,0.4-0.1,0.7-0.1s0.5,0.2,0.6,0.3c0.1,0.2,0.1,1-0.2,1.3c-0.2,0-0.4,0-0.6,0c0.3-0.6-0.3-1-0.7-0.8
				c-0.6,0.5-1.5,0.5-1.8-0.1c0-0.1,0-0.1-0.1-0.2l0,0c0-0.1-0.1-0.2-0.3-0.2c-0.2,0-0.3,0-0.4,0.1c-0.1,0.2-0.3,0.3-0.5,0.4
				c-0.2,0.1-0.4,0.1-0.7,0.1c-0.2,0-0.5-0.1-0.6-0.2c-0.2-0.1-0.3-0.3-0.3-0.5c-0.1-0.1-0.2-0.2-0.3-0.2c-0.1,0-0.3,0.1-0.4,0.2
				c-0.1,0.2-0.3,0.3-0.5,0.4c-0.2,0.1-0.4,0.2-0.7,0.2c-0.2,0-0.5-0.1-0.6-0.2c-0.2-0.1-0.3-0.3-0.3-0.5l0,0
				c-0.1-0.1-0.2-0.2-0.3-0.2c0,0-0.1,0-0.1,0v0c0,0-0.1,0-0.1,0c-0.2,0-0.3,0.1-0.3,0.2l0,0c-0.1,0.2-0.2,0.3-0.3,0.5
				c-0.2,0.1-0.4,0.2-0.6,0.2c-0.2,0-0.5-0.1-0.7-0.2c-0.2-0.1-0.4-0.3-0.5-0.4c-0.1-0.1-0.2-0.2-0.4-0.2c-0.1,0-0.2,0.1-0.3,0.2
				c0,0.2-0.1,0.4-0.3,0.5c-0.2,0.1-0.4,0.2-0.6,0.2c-0.2,0-0.5,0-0.7-0.1c-0.2-0.1-0.4-0.2-0.5-0.4c-0.1-0.1-0.2-0.2-0.4-0.1
				c-0.2,0-0.3,0.1-0.3,0.2l0,0c0,0.1,0,0.1-0.1,0.2c-0.3,0.7-1.2,0.6-1.8,0.1c-0.3-0.3-1,0.1-0.6,0.7c-0.2,0-0.4,0-0.6,0.1
				c-0.3-0.4-0.3-1.2-0.2-1.3c0.1-0.2,0.4-0.3,0.6-0.3c0.3,0,0.5,0,0.7,0.1c0.2,0.1,0.4,0.2,0.6,0.4c0.1,0.1,0.3,0.1,0.4,0.1
				c0.1,0,0.3-0.1,0.3-0.2l0,0c0-0.2,0.1-0.4,0.3-0.5c0.1-0.1,0.4-0.2,0.6-0.2c0.2,0,0.5,0,0.7,0.1c0.2,0.1,0.4,0.2,0.5,0.4
				c0.1,0.1,0.3,0.2,0.4,0.2c0.1,0,0.2-0.1,0.3-0.2c0-0.2,0.1-0.4,0.3-0.5c0.2-0.1,0.4-0.2,0.7-0.2c0.3,0,0.5,0,0.7,0.1
				c0.2,0.1,0.4,0.3,0.5,0.4c0.1,0.1,0.2,0.2,0.4,0.2c0.2,0,0.3-0.1,0.3-0.2l0,0c0.1-0.2,0.2-0.3,0.3-0.5c0.2-0.1,0.4-0.2,0.7-0.2
				C87.3,16.7,87.4,16.7,87.4,16.7L87.4,16.7z"/>
		</g>
		<path id="XMLID_67_" class="st5" d="M111.4,44.4c0.1-0.1,0.7-2.9,2-4c1.4-1.1,3.3,0.4,3.3,0.4c-2.3,1.2-2.6,2.9-2.8,3.6
			c-0.2,0.8-0.4,3.8-0.4,3.8c0,0-0.6,0.2-1.1,0.8C112.5,49,111.6,45.1,111.4,44.4L111.4,44.4L111.4,44.4z"/>
		<path id="XMLID_66_" class="st5" d="M68.8,34.2C68.3,34.5,68,35,68,35.4c0,0,0,0,0,0.1c-0.1,0-0.4,0.1-0.5,0.1
			c0,0-0.1-0.1-0.1-0.5c-0.1-0.7,0-1-0.1-1.8c0-0.4,0-1.4,1-2c1.3-0.7,1.5-1.8,1.4-2.2c0,0-0.6,0.5-1.2,0.7
			c-0.7,0.3-1.4,0.7-1.5,1.2c0-0.3,0-0.5,0-0.6c0,0,1.5-1,2.1-2.2c0.6-1.2,0.4-1.7,0.3-2c0,0-0.8,1-1.3,1.4
			c-0.6,0.4-0.9,0.5-1.3,1.3c0,0-0.1-0.6-0.5-1.3c0-0.2-0.2-1.2-0.2-2.9c0-0.8-0.2-2.3,0.5-2.6c0.7-0.2,0.7,0,1.8-0.1
			c1.2-0.2,1.6-0.7,2-1.9c0.3-1,0.4-1.1,0.5-1.2c0,0-0.7,0.5-1,0.6c-0.3,0.1-1.4,0.9-1.9,1.1c0,0,1.5-1,1.9-1.5
			c0.4-0.6,0.6-1.2,0.6-1.9c0,0-0.6,0.4-1.6,1.2c-0.6,0.6-1.4,1.2-1.4,1.2s1.1-1.2,1.7-1.8c0.4-0.4,0.5-0.8,0.5-1.2
			c0-0.4,0-0.7,0-0.8c0,0-0.3,0.5-0.9,0.8c-0.5,0.3-2.5,0.5-2.7,3.1c0,0.3,0,0.4-0.2,0.7c-0.1,0.1-0.2,0.3-0.2,0.3s0.3-0.7-0.2-2.1
			c-0.3-0.9-0.6-1.7-0.7-2c0,0-0.4,0.7-0.5,1.7c-0.1,1-0.1,1.1-0.3,0.2c0,0-0.5-1.7-0.9-2c0,0-0.1,2.7,0.1,3.2c0,0-0.7-1.3-1.5-1.6
			c0,0,0.2,0.4,0.2,0.9c0.1,0.5,0.1,0.8,0.2,1c0,0.2,0.3,1.3,1.4,1.8c1.2,0.5,1.2,0.3,1.5,1.6c0.3,1.1,0.3,2.4,0.3,3
			c-0.6-0.6-1.2-1.1-1.4-1.7c-0.2-0.7-0.2-0.9-0.2-1.3c0-0.4-0.2-1.1-1.1-1.5c-0.9-0.4-2-1.5-2.4-2.1c0,0,0,0.7,0.1,1.1
			c0.1,0.4,0.3,1,0.6,1.2c0.3,0.3,0.9,1,1,1.3c0,0-0.8-0.7-1.2-1c-0.7-0.5-1.6-0.7-2-0.8c0,0,0.1,0.5,0.6,1c0.8,0.8,1.5,1.1,1.8,1.7
			c0,0-0.9-0.6-1.4-0.6c-0.5,0-0.8,0-1,0c0,0,0.7,0.7,1.3,1.3c0.6,0.6,0.9,1.2,2.6,0.8c1.7-0.4,2.8,1.8,2.8,2.4c0,0-0.4,0.1-0.6-0.1
			c0,0,0,0,0-0.1c0-0.5-0.3-1-0.9-1.2c-0.7-0.3-1.4-0.1-1.6,0.5c-0.2,0.5,0.2,1.2,0.9,1.4c0.5,0.2,1.1,0.1,1.4-0.2c0,0,0.1,0,0.1,0
			c1.1,0.1,1.3,0.6,1.5,1c0.2,0.4,0.1,1.9,0.1,1.9c-0.2-0.2-1.1-1.2-1.1-1.2c0,3.2,0.3,3.5,0.9,3.9c0.5,0.4,0.5,0.5,0.6,0.8
			c0.1,0.3,0.2,1.6,0.1,2.8C66.5,39,66,39.6,66,39.6c0,0.5-0.1,1.3-0.1,1.3c0.7-0.5,1.3-0.5,1.3-0.5s0.2-3.3,0.3-3.9
			c0.1-0.4,0.2-0.5,0.7-0.5c0,0,0,0,0,0c0.4,0.4,1.1,0.5,1.7,0.2c0.7-0.4,1-1.2,0.7-1.7C70.3,33.9,69.5,33.8,68.8,34.2L68.8,34.2
			L68.8,34.2z"/>
		<path id="XMLID_65_" class="st5" d="M58.9,29.3c0,0,4-1.1,5.5,3.5c1.5,4.6,1,7.3,1,8.5c0,0-1.3,0.9-1.6,2.2c0,0-1.3-5.2-4.1-6.6
			c0,0,2-2.7,3.4,1.5c0,0-0.6-4.4-4.2-4.6c0,0,1.2-3.1,3.9,0.2C62.7,33.9,62.5,31,58.9,29.3L58.9,29.3z"/>
		<path id="XMLID_64_" class="st5" d="M63.5,44.4c-0.1-0.1-0.7-2.9-2-4c-1.4-1.1-3.3,0.4-3.3,0.4c2.3,1.2,2.6,2.9,2.8,3.6
			c0.2,0.8,0.4,3.8,0.4,3.8c0,0,0.6,0.2,1.1,0.8C62.4,49,63.3,45.1,63.5,44.4L63.5,44.4L63.5,44.4z"/>
		<path id="XMLID_63_" class="st5" d="M69.3,43.1c0,0-0.8-2.2-2.4-1.9c-1.7,0.3-2.6,2.3-2.9,3.5c-0.3,1.2-1.1,4.4-1.1,4.7
			c0,0,0.6,0.7,0.8,1.1c0,0,0.2-1.1,1.5-2.1C65.3,48.5,65,42.4,69.3,43.1L69.3,43.1L69.3,43.1z"/>
		<path id="XMLID_62_" class="st5" d="M104.4,60.6c0,0,2.2,0.8,3.7,0c0,0,0.4-0.1,1.6-0.9c1.2-0.9,1.8-3.3,1.2-4.5
			c0,0,0.6-0.9,0.7-1c0,0,0.4,2.5,0.3,3c-0.1,0.5,1.6,0.3,1.7-0.6c0,0-0.1-3.3,4.7-3c0,0-1.2,0.8-1.6,1.2c-0.2,0.3-0.5,1,0.4,0.7
			c0.9-0.4,1.7-0.2,1.8-0.2c0,0-0.6,0.6-1.4,1c-0.5,0.3-0.9,0.9,0.4,1c1.1,0,1.1,0.3,1.2,0.4c0,0-0.9,0.2-2.1,0.5
			c-0.6,0.2-1.8,0.3-2.7-0.5c0,0-0.3-0.2-0.7,0c-0.4,0.2-1,0.5-1.6,0.5c-0.6,0-0.6,0.8,0.7,1.1l0,0c0.1-0.5,0.7-0.9,1.4-0.9
			c0.8,0,1.4,0.4,1.4,1c0,0.5-0.6,1-1.4,1c-0.4,0-0.8-0.1-1.1-0.3l0,0c-0.2-0.1-0.5-0.4-1.1-0.5c-0.6-0.1-2.1,0.9-2.1,0.9
			c0.8,0.4,1.4,0.3,1.4,0.3c1.9-0.1,2.2,0.9,2.2,0.9c0.4,1.1,1.1,1.8,1.1,1.8c-1.2,0.6-2.1-0.8-2.6-0.8c-0.5,0,0.1,0.5,0.1,0.5
			c1.5,1,1.5,2,1.5,2c-0.3-0.3-1.2-0.5-1.5-0.7c-0.2-0.1-0.7-0.7-0.9-0.7c-0.3,0-0.2,0.2,0.3,0.8c0.5,0.6,0.7,1.6,0.7,1.6
			c-0.1-0.1-0.5-0.4-0.8-0.5c-0.4-0.2-2.2-0.7-1.9-2.5c0.3-1.8-0.4-2.2-0.4-2.2c-2.5,1.7-5.4,0.1-5.4,0.1
			C103.9,61,104.4,60.6,104.4,60.6L104.4,60.6L104.4,60.6z"/>
		<path id="XMLID_61_" class="st5" d="M116,29.3c0,0-4-1.1-5.5,3.5c-1.5,4.6-1,7.3-1,8.5c0,0,1.3,0.9,1.6,2.2c0,0,1.3-5.2,4.1-6.6
			c0,0-2-2.7-3.4,1.5c0,0,0.6-4.4,4.2-4.6c0,0-1.2-3.1-3.8,0.2C112.2,33.9,112.4,31,116,29.3L116,29.3L116,29.3z"/>
		<path id="XMLID_60_" class="st5" d="M106.1,34.2c0.5,0.3,0.8,0.8,0.8,1.3c0,0,0,0.1,0,0.1c0.1,0,0.4,0.1,0.5,0.1
			c0,0,0.1-0.1,0.1-0.5c0.1-0.7,0-1,0.1-1.8c0-0.4,0-1.4-1-2c-1.3-0.7-1.5-1.8-1.4-2.2c0,0,0.6,0.5,1.2,0.7c0.7,0.3,1.4,0.7,1.5,1.2
			c0-0.3,0-0.5,0-0.6c0,0-1.5-1-2.1-2.2c-0.6-1.2-0.4-1.7-0.3-2c0,0,0.8,1,1.3,1.4c0.6,0.4,0.9,0.5,1.3,1.3c0,0,0.1-0.6,0.5-1.3
			c0-0.2,0.2-1.2,0.2-2.9c0-0.8,0.2-2.3-0.5-2.6c-0.7-0.2-0.7,0-1.8-0.1c-1.2-0.2-1.6-0.7-2-1.9c-0.3-1-0.4-1.1-0.5-1.2
			c0,0,0.7,0.5,1,0.6c0.3,0.1,1.4,0.9,1.9,1.1c0,0-1.5-1-1.9-1.5c-0.4-0.6-0.6-1.2-0.6-1.9c0,0,0.6,0.4,1.6,1.2
			c0.6,0.6,1.4,1.2,1.4,1.2s-1.1-1.2-1.7-1.8c-0.4-0.4-0.5-0.8-0.5-1.2c0-0.4,0-0.7,0-0.8c0,0,0.3,0.5,0.8,0.8
			c0.5,0.3,2.5,0.5,2.7,3.1c0,0.3,0,0.4,0.2,0.7c0.1,0.1,0.2,0.3,0.2,0.3s-0.3-0.7,0.2-2.1c0.3-0.9,0.6-1.7,0.7-2
			c0,0,0.4,0.7,0.5,1.7c0.1,1,0.1,1.1,0.3,0.2c0,0,0.5-1.7,0.9-2c0,0,0.1,2.7-0.1,3.2c0,0,0.7-1.3,1.5-1.6c0,0-0.2,0.4-0.2,0.9
			c-0.1,0.5-0.1,0.8-0.2,1c0,0.2-0.3,1.3-1.4,1.8c-1.2,0.5-1.2,0.2-1.5,1.6c-0.3,1.1-0.3,2.4-0.3,3c0.6-0.6,1.2-1.1,1.4-1.7
			c0.2-0.7,0.2-0.9,0.2-1.3c0-0.4,0.2-1.1,1.1-1.5c0.9-0.4,2-1.5,2.4-2.1c0,0,0,0.7-0.1,1.1c-0.1,0.4-0.3,1-0.6,1.2
			c-0.3,0.3-0.9,1-1,1.3c0,0,0.8-0.7,1.2-1c0.7-0.5,1.6-0.7,2-0.8c0,0-0.1,0.5-0.6,1c-0.8,0.8-1.5,1.1-1.8,1.7c0,0,0.9-0.6,1.4-0.6
			c0.5,0,0.8,0,1,0c0,0-0.7,0.7-1.3,1.3c-0.6,0.6-0.9,1.2-2.6,0.8c-1.7-0.4-2.8,1.8-2.8,2.4c0,0,0.4,0.1,0.6-0.1c0,0,0,0,0-0.1
			c0-0.5,0.3-1,0.9-1.2c0.7-0.3,1.4-0.1,1.6,0.5c0.2,0.5-0.2,1.2-0.9,1.4c-0.5,0.2-1.1,0.1-1.4-0.2c0,0-0.1,0-0.1,0
			c-1.1,0.1-1.3,0.6-1.5,1c-0.2,0.4-0.1,1.9-0.1,1.9c0.2-0.2,1.1-1.2,1.1-1.2c0,3.2-0.3,3.5-0.9,3.9c-0.5,0.4-0.5,0.5-0.6,0.8
			c-0.1,0.3-0.2,1.6-0.1,2.8c0.1,1.1,0.7,1.8,0.7,1.8c0,0.5,0.1,1.3,0.1,1.3c-0.7-0.5-1.3-0.5-1.3-0.5s-0.2-3.3-0.3-3.9
			c-0.1-0.4-0.2-0.5-0.7-0.5c0,0,0,0,0,0c-0.4,0.4-1.1,0.5-1.7,0.2c-0.7-0.4-1-1.2-0.7-1.7C104.6,33.9,105.5,33.8,106.1,34.2
			L106.1,34.2L106.1,34.2z"/>
		<path id="XMLID_59_" class="st5" d="M57.1,49.7c0,0,0.5-0.4,1.5-0.9c1.1-0.5,2.4-0.3,3.5,0.7c1,1,1.7,2.2,1.9,2.4
			c0,0,0.2-1.6,1.4-2.6c1.2-1.1,2.8-0.9,3.2-0.9c0,0-1.4,0.8-1.8,1.9c-0.5,1.1-1.2,7.2,3.4,9.9c0,0-2.4,0.8-5.2-4.5
			c-0.6-1.1-1.7-2.5-3.2-4.1C61.1,50.9,59.8,49.5,57.1,49.7L57.1,49.7L57.1,49.7z"/>
		<path id="XMLID_58_" class="st5" d="M70.5,60.6c0,0-2.2,0.8-3.7,0c0,0-0.4-0.1-1.6-0.9c-1.2-0.9-1.8-3.3-1.2-4.5
			c0,0-0.6-0.9-0.7-1c0,0-0.4,2.5-0.3,3c0.1,0.5-1.6,0.3-1.7-0.6c0,0,0.1-3.3-4.7-3c0,0,1.2,0.8,1.6,1.2c0.2,0.3,0.5,1-0.4,0.7
			c-0.9-0.4-1.7-0.2-1.8-0.2c0,0,0.6,0.6,1.4,1c0.5,0.3,0.9,0.9-0.4,1c-1.1,0-1.1,0.3-1.2,0.4c0,0,0.9,0.2,2.1,0.5
			c0.6,0.2,1.8,0.3,2.7-0.5c0,0,0.3-0.2,0.7,0c0.4,0.2,1,0.5,1.6,0.5c0.6,0,0.6,0.8-0.7,1.1l0,0c-0.1-0.5-0.7-0.9-1.4-0.9
			c-0.8,0-1.4,0.4-1.4,1c0,0.5,0.6,1,1.4,1c0.4,0,0.8-0.1,1.1-0.3l0,0c0.2-0.1,0.5-0.4,1.1-0.5c0.6-0.1,2.1,0.9,2.1,0.9
			c-0.8,0.4-1.4,0.3-1.4,0.3c-1.9-0.1-2.2,0.9-2.2,0.9c-0.4,1.1-1.1,1.8-1.1,1.8c1.2,0.6,2.1-0.8,2.6-0.8c0.5,0-0.1,0.5-0.1,0.5
			c-1.5,1-1.5,2-1.5,2c0.3-0.3,1.3-0.5,1.5-0.7c0.2-0.1,0.7-0.7,0.9-0.7c0.3,0,0.2,0.2-0.3,0.8c-0.5,0.6-0.7,1.6-0.7,1.6
			c0.1-0.1,0.5-0.4,0.8-0.5c0.4-0.2,2.2-0.7,1.9-2.5c-0.3-1.8,0.4-2.2,0.4-2.2c2.5,1.7,5.4,0.1,5.4,0.1C71.1,61,70.5,60.6,70.5,60.6
			L70.5,60.6L70.5,60.6z"/>
		<path id="XMLID_57_" class="st5" d="M117.8,49.7c0,0-0.5-0.4-1.5-0.9c-1.1-0.5-2.4-0.3-3.5,0.7c-1.1,1-1.7,2.2-1.9,2.4
			c0,0-0.2-1.6-1.4-2.7c-1.2-1.1-2.8-0.9-3.2-0.9c0,0,1.4,0.8,1.8,1.9c0.5,1.1,1.2,7.2-3.4,9.9c0,0,2.4,0.8,5.2-4.5
			c0.6-1.1,1.7-2.5,3.2-4.1C113.9,50.9,115.1,49.5,117.8,49.7L117.8,49.7L117.8,49.7z"/>
		<path id="XMLID_56_" class="st5" d="M105.7,43.1c0,0,0.8-2.2,2.4-1.9c1.7,0.3,2.6,2.3,2.9,3.5c0.3,1.2,1.1,4.4,1.1,4.7
			c0,0-0.6,0.7-0.8,1.1c0,0-0.2-1.1-1.5-2.1C109.7,48.5,110,42.4,105.7,43.1L105.7,43.1L105.7,43.1z"/>
		<path id="XMLID_55_" class="st5" d="M85,62.3c0,0-2.4-0.2-3-0.2c0,0-0.7,0.5-0.8,1.5c0,0,2.1,0.1,2.4,0.1c0,0,0.8-0.5,1.4-0.5
			C85.1,63.2,85,63,85,62.3L85,62.3L85,62.3z"/>
		<path id="XMLID_54_" class="st5" d="M89.9,62.3c0,0,2.4-0.2,3-0.2c0,0,0.7,0.5,0.8,1.5c0,0-2.1,0.1-2.4,0.1c0,0-0.8-0.5-1.4-0.5
			C89.9,63.2,90,63,89.9,62.3L89.9,62.3L89.9,62.3z"/>
		<path id="XMLID_53_" class="st4" d="M85.2,63.5c0,0-0.8,0.2-2.2,1.4c0,0-2.2,1.9-2.3,2c0,0,2.4,1.2,3.5-0.5
			c1.1-1.6,0.8-1.1,1.5-2.2C85.7,64.2,85.3,63.9,85.2,63.5L85.2,63.5L85.2,63.5z"/>
		<path id="XMLID_52_" class="st4" d="M89.7,63.5c0,0,0.8,0.2,2.2,1.4c0,0,2.2,1.9,2.3,2c0,0-2.4,1.2-3.5-0.5
			c-1.1-1.6-0.8-1.1-1.5-2.2C89.3,64.2,89.6,63.9,89.7,63.5L89.7,63.5L89.7,63.5z"/>
		<path id="XMLID_51_" class="st5" d="M78.8,61.4c0,0-4.2-1.3-5.9-2.2c-1.7-0.9-3.6-2.4-3.6-5.8c0,0-2.5,1.2-1.3,3.6
			c1.2,2.3,4.8,4.7,10.2,6.3C78.2,63.2,78.1,62.3,78.8,61.4L78.8,61.4L78.8,61.4z"/>
		<path id="XMLID_50_" class="st4" d="M85.2,58.1c0,0-1-1.8-2.3-1.9c-1.4,0.1-3.5,0.4-5.3,0c-1.8-0.4-2.5,0.6-3.1,1
			c-0.6,0.5-1,1.2-1.3,1.6c0,0,1.9,0.8,2.2,0.9c0,0,0.6-1.7,3.3-1.3C81.4,58.8,83.5,58.2,85.2,58.1L85.2,58.1L85.2,58.1z"/>
		<path id="XMLID_49_" class="st4" d="M85.3,58.7c0,0-2.2,0.2-2.3,0.2c0,0,0,0.7-1,1c0,0-2.1,0.7-2.6,1.7c-0.5,1-1.1,4,0.9,5
			c0,0,1.2-0.9,1.3-1.2c0,0-1.3-1-0.8-2.3c0.4-1.3,1.2-2.1,2.5-2.3C84.4,60.6,85.8,60.2,85.3,58.7L85.3,58.7L85.3,58.7z"/>
		<path id="XMLID_48_" class="st5" d="M96.1,61.4c0,0,4.2-1.3,5.9-2.2c1.7-0.9,3.6-2.4,3.6-5.8c0,0,2.5,1.2,1.3,3.6
			c-1.2,2.3-4.8,4.7-10.2,6.3C96.7,63.2,96.8,62.3,96.1,61.4L96.1,61.4L96.1,61.4z"/>
		<path id="XMLID_47_" class="st4" d="M89.7,58.1c0,0,1-1.8,2.3-1.9c1.4,0.1,3.5,0.4,5.3,0c1.7-0.4,2.5,0.6,3.1,1
			c0.6,0.5,1,1.2,1.3,1.6c0,0-1.9,0.8-2.2,0.9c0,0-0.6-1.7-3.3-1.3C93.5,58.8,91.4,58.2,89.7,58.1L89.7,58.1L89.7,58.1z"/>
		<path id="XMLID_46_" class="st4" d="M89.6,58.7c0,0,2.2,0.2,2.3,0.2c0,0,0,0.7,1,1c0,0,2.1,0.7,2.6,1.7c0.5,1,1.1,4-0.9,5
			c0,0-1.2-0.9-1.3-1.2c0,0,1.3-1,0.8-2.3c-0.4-1.3-1.2-2.1-2.5-2.3C90.5,60.6,89.1,60.2,89.6,58.7L89.6,58.7L89.6,58.7z"/>
		<path id="XMLID_45_" class="st4" d="M87.5,61c1,0,1.7,0.8,1.7,1.7c0,1-0.8,1.7-1.7,1.7c-1,0-1.7-0.8-1.7-1.7
			C85.7,61.7,86.5,61,87.5,61L87.5,61L87.5,61z"/>
		<path id="XMLID_44_" class="st4" d="M100.9,62.4c0,0,1.6-0.8,2-1.1c0,0,0.7,1.1,1,1.4c0.3,0.3,1.1,0.8,1.8,1
			c0.7,0.2,1.4,1.2,1.5,1.6c0.1,0.4,0.4,1.4,0.3,2c0,0-0.5-1-1.4-1.4c0,0-0.2,1.8-0.3,2.1c0,0-0.2-2.3-1.6-2.8
			C103,64.6,101.7,63.7,100.9,62.4L100.9,62.4L100.9,62.4z"/>
		<path id="XMLID_43_" class="st4" d="M74,62.4c0,0-1.6-0.8-2-1.1c0,0-0.7,1.1-1,1.4c-0.3,0.3-1.1,0.8-1.8,1
			c-0.7,0.2-1.4,1.2-1.5,1.6c-0.1,0.4-0.4,1.4-0.3,2c0,0,0.5-1,1.4-1.4c0,0,0.2,1.8,0.3,2.1c0,0,0.2-2.3,1.6-2.8
			C71.9,64.6,73.2,63.7,74,62.4L74,62.4L74,62.4z"/>
	</g>
	<g id="XMLID_216_">
		<path id="XMLID_42_" class="st5" d="M344.8,29.8L344.8,29.8l-0.1,0.1c-0.1,0.1-0.2,0.1-0.3,0.1c-0.1,0-0.2-0.1-0.2-0.2
			c-0.2-0.4-0.4-0.7-0.7-1c-0.3-0.3-0.6-0.4-1-0.4c-0.5,0-1,0.1-1.6,0.4c-0.5,0.3-1,0.6-1.4,0.9c-0.2,0.1-0.3,0.1-0.4-0.1
			c-0.1-0.1-0.1-0.2,0-0.3c0.5-0.6,0.9-1.1,1.5-1.6c0.5-0.5,1.1-0.9,1.6-1.4c0.2-0.1,0.3-0.1,0.4,0c0.5,0.3,1,0.7,1.5,1.1
			c0.5,0.4,1,0.8,1.5,1.2l0.1,0.3C345.4,29.2,345.1,29.5,344.8,29.8L344.8,29.8L344.8,29.8z"/>
		<path id="XMLID_229_" class="st5" d="M248.2,40.1c0-1.2-0.2-2.3-0.5-3.5c-0.4-1.2-0.9-2.3-1.6-3.2c-0.7-1-1.7-1.7-2.8-2.3
			c-1.1-0.6-2.4-0.9-3.9-0.9c-0.2,0-0.5,0-0.7,0c-0.2,0-0.5,0.1-0.7,0.1c-1.5,0.3-2.8,0.7-3.8,1.3c-1,0.5-1.9,1.2-2.6,2
			c-0.7,0.8-1.2,1.7-1.5,2.8c-0.3,1.1-0.5,2.3-0.5,3.7c0,0.7,0.1,1.4,0.4,2.1c0.3,0.7,0.6,1.4,1,2c0.4,0.6,0.9,1.2,1.5,1.8
			c0.6,0.6,1.2,1,1.8,1.4c0.7,0.4,1.3,0.7,2,1c0.7,0.2,1.4,0.4,2,0.4c0.1,0,0.2,0,0.4,0c0.2,0,0.3,0,0.5,0c0.2,0,0.3,0,0.4,0
			c0.1,0,0.2,0,0.3,0c1.1-0.3,2.2-0.6,3.1-1.1c1-0.5,1.8-1,2.6-1.7c0.7-0.7,1.3-1.5,1.8-2.5C248,42.4,248.2,41.3,248.2,40.1
			L248.2,40.1L248.2,40.1z M245.8,40.1L245.8,40.1c0,1-0.1,2-0.4,2.9c-0.3,0.9-0.7,1.7-1.3,2.4c-0.5,0.7-1.2,1.2-2,1.6
			c-0.8,0.4-1.7,0.6-2.8,0.6c-1.1,0-2.1-0.3-3-0.8c-0.9-0.5-1.6-1.2-2.2-2c-0.6-0.8-1.1-1.8-1.4-2.8c-0.3-1-0.5-2.1-0.5-3.1
			c0-1,0.1-2,0.4-2.9c0.3-0.9,0.7-1.7,1.3-2.4c0.6-0.7,1.3-1.2,2.1-1.6c0.8-0.4,1.8-0.6,2.8-0.6c1.1,0,2.1,0.3,3,0.8
			c0.9,0.5,1.6,1.2,2.2,2c0.6,0.8,1,1.7,1.3,2.8C245.6,38,245.8,39,245.8,40.1L245.8,40.1L245.8,40.1z"/>
		<path id="XMLID_226_" class="st5" d="M266.6,48.4l-0.1-0.4c-0.6,0.1-1.2,0-1.8-0.3c-0.6-0.3-1.2-0.7-1.7-1.3
			c-0.6-0.5-1.1-1.1-1.6-1.8c-0.5-0.7-1-1.3-1.5-2c-0.3-0.4-0.6-0.8-0.8-1.1c-0.3-0.4-0.5-0.7-0.8-1c0.4-0.3,0.7-0.7,1-1.1
			c0.3-0.4,0.6-0.8,0.9-1.3c0.3-0.5,0.5-0.9,0.6-1.4c0.2-0.5,0.2-1,0.2-1.5c0-0.1,0-0.2,0-0.4c0-0.1,0-0.2-0.1-0.3
			c-0.2-0.8-0.5-1.4-0.9-1.9c-0.4-0.5-0.9-0.9-1.4-1.1c-0.5-0.3-1.1-0.4-1.8-0.5c-0.6-0.1-1.3-0.1-2-0.1l-1.3,0c-0.1,0-0.3,0-0.4,0
			c-0.1,0-0.3,0-0.4,0c-0.3,0-0.5,0-0.7,0c-0.2,0-0.5,0-0.8,0l-1.6,0h-0.4c-0.1,0-0.2,0-0.2,0.1c0,0.1,0,0.1,0,0.2
			c0,0.2,0.1,0.3,0.3,0.3c0.2,0,0.3,0.1,0.6,0.1c0.1,0,0.2,0,0.3,0.1c0.1,0,0.2,0.1,0.3,0.1c0.1,0.1,0.2,0.2,0.2,0.3
			c0.1,0.2,0.1,0.4,0.1,0.6l0,13.2c0,0.4,0,0.7,0,0.9c0,0.2-0.1,0.4-0.2,0.6c-0.1,0.1-0.2,0.3-0.4,0.3c-0.2,0.1-0.5,0.2-0.8,0.2
			c-0.2,0-0.2,0.1-0.2,0.2c0,0.1,0.1,0.2,0.2,0.2c1,0,1.9,0.1,2.9,0.1c1,0,1.9,0,2.9,0c0.1,0,0.2,0,0.3-0.1c0-0.1,0-0.2-0.1-0.2
			c-0.1-0.1-0.3-0.2-0.5-0.2c-0.2,0-0.4-0.1-0.5-0.1c-0.1,0-0.2,0-0.3,0c-0.1,0-0.2,0-0.3-0.1c0,0-0.1-0.1-0.1-0.3
			c0-0.2-0.1-0.4-0.1-0.6c0-0.2-0.1-0.4-0.1-0.6c0-0.2,0-0.3,0-0.4l0-4.4c0.1,0,0.3,0,0.4,0c0.2,0,0.3,0,0.4,0c0.3,0,0.7,0,1.1,0.1
			c0.4,0.1,0.8,0.2,1.1,0.5c0.4,0.3,0.7,0.7,1.1,1.2c0.4,0.5,0.7,1,1.1,1.5c0.4,0.5,0.7,1,1.1,1.5c0.4,0.5,0.8,1,1.3,1.4
			c0.5,0.4,0.9,0.7,1.5,1c0.5,0.2,1.1,0.4,1.8,0.4c0.4,0,0.8,0,1.2-0.1C265.8,48.7,266.2,48.5,266.6,48.4L266.6,48.4L266.6,48.4z
			 M258.3,36.4L258.3,36.4c0,0.3,0,0.6-0.1,0.9c0,0.3-0.1,0.6-0.2,0.9c-0.1,0.3-0.2,0.6-0.4,0.8c-0.2,0.2-0.3,0.5-0.6,0.6
			c-0.2,0.2-0.5,0.3-0.9,0.3c-0.3,0-0.7,0-0.9,0c-0.7,0-1.3,0-2-0.1l0-7.8c0.4-0.1,0.9-0.2,1.3-0.2c0.6,0,1.1,0.1,1.6,0.4
			c0.5,0.3,0.8,0.6,1.1,1.1c0.3,0.4,0.5,0.9,0.7,1.5C258.2,35.3,258.3,35.9,258.3,36.4L258.3,36.4L258.3,36.4z"/>
		<path id="XMLID_37_" class="st5" d="M279.5,31.4v-0.5c0-0.1,0-0.1-0.1-0.2c-0.1,0-0.1,0-0.2,0c-0.1,0-0.2,0-0.3,0
			c-0.1,0-0.2,0-0.3,0.1c-0.1,0-0.3,0.1-0.4,0.1c-0.2,0-0.3,0.1-0.4,0.1h-10.2c-0.1,0-0.2,0-0.4,0c-0.2,0-0.4-0.1-0.6-0.1
			c-0.2,0-0.4-0.1-0.6-0.2c-0.2-0.1-0.3-0.1-0.4-0.2c-0.1,0-0.2,0-0.3,0c-0.1,0-0.1,0.1-0.2,0.2c0,0.1-0.1,0.3-0.1,0.4
			c0,0.1-0.1,0.3-0.1,0.4c-0.1,0.3-0.2,0.7-0.3,1c-0.1,0.3-0.1,0.7-0.1,0.9c0,0.1,0,0.1,0,0.2c0,0.1,0,0.1,0,0.2
			c0,0.1,0.1,0.2,0.3,0.2c0.1,0,0.2,0,0.3-0.1c0.2-0.4,0.5-0.8,0.8-1.1c0.4-0.3,0.8-0.5,1.2-0.5l3.7,0v13.9c0,0.4,0,0.7,0,0.9
			c0,0.2-0.1,0.4-0.2,0.5c-0.1,0.1-0.2,0.3-0.4,0.3c-0.2,0.1-0.5,0.1-0.8,0.2c-0.2,0-0.2,0.1-0.2,0.2c0,0.1,0.1,0.2,0.3,0.2
			c1,0,1.9,0,2.9,0c1,0,1.9,0,2.9,0c0.1,0,0.2,0,0.2-0.1c0-0.1,0-0.1,0-0.2c-0.1-0.2-0.2-0.3-0.4-0.3c-0.2,0-0.3-0.1-0.6-0.1
			c-0.1,0-0.3,0-0.5-0.1c-0.2,0-0.3-0.1-0.5-0.3c0,0,0-0.1-0.1-0.3c0-0.2-0.1-0.3-0.1-0.5c0-0.2,0-0.4-0.1-0.6c0-0.2,0-0.3,0-0.3
			l0-13.5c0.1,0,0.2,0,0.4,0c0.1,0,0.3,0,0.4,0c0.1,0,0.3,0,0.5,0c0.2,0,0.3,0,0.5,0c0.2,0,0.3,0,0.5,0c0.1,0,0.3,0,0.5,0
			c0.7,0,1.2,0.1,1.7,0.4c0.5,0.2,0.8,0.7,0.9,1.5c0,0.1,0.1,0.2,0.3,0.2c0.2,0,0.3-0.1,0.3-0.2c0.1-0.4,0.2-0.8,0.2-1.3
			C279.4,32.2,279.5,31.8,279.5,31.4L279.5,31.4L279.5,31.4z"/>
		<path id="XMLID_36_" class="st5" d="M297.9,31.2l0-0.4c-0.9-0.1-1.7-0.1-2.6-0.1c-0.8,0-1.7,0-2.5,0c-0.1,0-0.2,0-0.2,0.1
			c-0.1,0-0.1,0.1-0.1,0.2c0,0.2,0.2,0.3,0.4,0.3c0.2,0.1,0.5,0.1,0.7,0.1c0.1,0,0.2,0,0.2,0c0,0,0.1,0,0.1,0
			c0.2,0.1,0.3,0.2,0.4,0.5c0.1,0.2,0.1,0.5,0.1,0.7c0,0.4,0,0.8,0,1.2c0,0.4,0,0.9,0,1.3c0,0.4,0,0.9,0,1.3c0,0.4,0,0.8,0,1.2
			c0,0.8,0,1.7,0,2.5c0,0.8,0,1.7,0,2.5c0,0.7-0.1,1.4-0.4,2c-0.2,0.6-0.6,1.1-1,1.5c-0.4,0.4-1,0.7-1.6,1c-0.6,0.2-1.2,0.3-1.9,0.3
			c-0.7,0-1.3-0.1-1.9-0.3c-0.6-0.2-1.1-0.5-1.5-1c-0.4-0.4-0.8-0.9-1-1.5c-0.2-0.6-0.4-1.2-0.4-1.9c0-0.9,0-1.7,0-2.5
			c0-0.8,0-1.7,0-2.5c0-0.9,0-1.7,0-2.6c0-0.8,0-1.7,0-2.6c0-0.5,0.1-0.8,0.4-1c0.2-0.2,0.6-0.3,1-0.3c0.2,0,0.2-0.1,0.2-0.2
			c0-0.1-0.1-0.2-0.2-0.2c-0.8-0.1-1.6-0.1-2.4,0c-0.8,0.1-1.6,0.1-2.3,0l-0.9,0c-0.1,0-0.2,0-0.2,0.1c-0.1,0-0.1,0.1-0.1,0.2
			c0,0.2,0.2,0.3,0.4,0.4c0.2,0.1,0.5,0.1,0.7,0.1c0.1,0,0.2,0,0.2,0c0,0,0.1,0,0.1,0c0.2,0.1,0.3,0.2,0.4,0.5
			c0.1,0.2,0.1,0.5,0.1,0.7l0,9.5c0,0.1,0,0.2,0,0.3c0,0.2,0,0.3,0.1,0.5c0,0.2,0,0.3,0.1,0.5c0,0.2,0.1,0.3,0.1,0.3
			c0.3,0.7,0.6,1.4,1.1,2c0.5,0.6,1,1.1,1.6,1.6c0.6,0.4,1.3,0.8,2,1c0.7,0.2,1.5,0.4,2.3,0.4c1,0,2-0.2,2.8-0.6
			c0.8-0.4,1.6-0.9,2.2-1.5c0.6-0.7,1.1-1.4,1.4-2.3c0.3-0.9,0.5-1.8,0.5-2.8l0-9c0-0.5,0.1-0.8,0.4-1
			C297.2,31.4,297.5,31.3,297.9,31.2L297.9,31.2L297.9,31.2z"/>
		<path id="XMLID_35_" class="st5" d="M316.7,40l0-0.4c-0.9,0-1.9-0.1-2.8-0.1c-0.9,0-1.9,0-2.8,0c-0.1,0-0.2,0.1-0.3,0.2
			c0,0.1,0,0.2,0.1,0.3c0.1,0.1,0.3,0.1,0.4,0.2c0.1,0,0.3,0.1,0.5,0.1c0.2,0.1,0.4,0.2,0.6,0.3c0.2,0.1,0.3,0.4,0.3,0.7l0,5.3
			c-0.4,0.4-0.8,0.6-1.3,0.7c-0.5,0.1-1,0.2-1.5,0.2c-0.3,0-0.7,0-1.1-0.1c-0.4,0-0.8-0.1-1.2-0.2c-0.4-0.1-0.8-0.2-1.1-0.3
			c-0.4-0.1-0.7-0.3-0.9-0.5c-0.6-0.4-1.1-0.9-1.6-1.5c-0.5-0.6-0.9-1.2-1.3-1.8c-0.4-0.7-0.6-1.3-0.8-2.1c-0.2-0.7-0.3-1.4-0.3-2.2
			c0-1.1,0.2-2.1,0.6-3c0.4-0.9,0.9-1.7,1.6-2.3c0.7-0.6,1.5-1.1,2.4-1.5c0.9-0.3,1.9-0.5,3-0.5c0.6,0,1.2,0.1,1.8,0.2
			c0.6,0.1,1.1,0.4,1.5,0.7c0.5,0.3,0.8,0.7,1.2,1.2c0.3,0.5,0.5,1,0.6,1.7c0,0.1,0.1,0.1,0.1,0.2c0.1,0,0.2,0,0.3,0
			c0.1-0.1,0.2-0.3,0.3-0.6c0.1-0.3,0.2-0.7,0.2-1c0-0.4,0.1-0.8,0.1-1.2c0-0.4,0-0.7,0-1l0-0.3c0,0,0-0.1-0.1-0.1
			c0,0-0.1-0.1-0.2-0.1c-0.3,0-0.6-0.1-0.9-0.1c-0.3,0-0.6-0.1-0.9-0.1c-0.7-0.1-1.4-0.2-2.1-0.3c-0.7-0.1-1.4-0.1-2.2-0.1
			c-1.3,0-2.6,0.2-3.8,0.6c-1.2,0.4-2.2,0.9-3.1,1.7c-0.9,0.7-1.6,1.7-2.1,2.7c-0.5,1.1-0.8,2.3-0.8,3.8c0,1.2,0.2,2.3,0.6,3.4
			c0.4,1.1,0.9,2.1,1.7,2.9c0.7,0.9,1.6,1.6,2.6,2.1c1,0.6,2.1,0.9,3.4,1c0.7,0,1.4,0.1,2.1,0.1c0.4,0,0.9,0,1.4,0
			c0.5,0,1-0.1,1.5-0.2c0.5-0.1,1-0.2,1.4-0.4c0.5-0.2,0.9-0.4,1.2-0.7c0.1,0,0.1-0.1,0.1-0.2l0-5.9c0-0.2,0-0.4,0.1-0.5
			c0.1-0.1,0.2-0.3,0.3-0.3c0.1-0.1,0.3-0.2,0.5-0.2C316.3,40.1,316.5,40.1,316.7,40L316.7,40L316.7,40z"/>
		<path id="XMLID_34_" class="st5" d="M335.4,31.2l0-0.4c-0.9-0.1-1.7-0.1-2.5-0.1c-0.8,0-1.7,0-2.5,0c-0.1,0-0.2,0-0.2,0.1
			c-0.1,0-0.1,0.1-0.1,0.2c0,0.2,0.2,0.3,0.4,0.3c0.2,0.1,0.5,0.1,0.7,0.1c0.1,0,0.2,0,0.2,0c0,0,0.1,0,0.1,0
			c0.2,0.1,0.3,0.2,0.4,0.5c0.1,0.2,0.1,0.5,0.1,0.7c0,0.4,0,0.8,0,1.2c0,0.4,0,0.9,0,1.3c0,0.4,0,0.9,0,1.3c0,0.4,0,0.8,0,1.2
			c0,0.8,0,1.7,0,2.5c0,0.8,0,1.7,0,2.5c0,0.7-0.1,1.4-0.4,2c-0.2,0.6-0.6,1.1-1,1.5c-0.4,0.4-1,0.7-1.5,1c-0.6,0.2-1.2,0.3-1.9,0.3
			c-0.7,0-1.3-0.1-1.9-0.3c-0.6-0.2-1.1-0.5-1.5-1c-0.4-0.4-0.8-0.9-1-1.5c-0.2-0.6-0.4-1.2-0.4-1.9c0-0.9,0-1.7,0-2.5
			c0-0.8,0-1.7,0-2.5c0-0.9,0-1.7,0-2.6c0-0.8,0-1.7,0-2.6c0-0.5,0.1-0.8,0.4-1c0.2-0.2,0.6-0.3,1-0.3c0.2,0,0.2-0.1,0.2-0.2
			c0-0.1-0.1-0.2-0.2-0.2c-0.8-0.1-1.6-0.1-2.4,0c-0.8,0.1-1.6,0.1-2.3,0l-0.9,0c-0.1,0-0.2,0-0.2,0.1c-0.1,0-0.1,0.1-0.1,0.2
			c0,0.2,0.2,0.3,0.4,0.4c0.2,0.1,0.5,0.1,0.7,0.1c0.1,0,0.2,0,0.2,0c0,0,0.1,0,0.1,0c0.2,0.1,0.3,0.2,0.4,0.5
			c0.1,0.2,0.1,0.5,0.1,0.7l0,9.5c0,0.1,0,0.2,0,0.3c0,0.2,0,0.3,0.1,0.5c0,0.2,0.1,0.3,0.1,0.5c0,0.2,0.1,0.3,0.1,0.3
			c0.3,0.7,0.6,1.4,1.1,2c0.5,0.6,1,1.1,1.6,1.6c0.6,0.4,1.3,0.8,2,1c0.7,0.2,1.5,0.4,2.3,0.4c1,0,2-0.2,2.8-0.6
			c0.8-0.4,1.6-0.9,2.2-1.5c0.6-0.7,1-1.4,1.4-2.3c0.3-0.9,0.5-1.8,0.5-2.8v-9c0-0.5,0.1-0.8,0.4-1C334.6,31.4,335,31.3,335.4,31.2
			L335.4,31.2L335.4,31.2z"/>
		<path id="XMLID_33_" class="st5" d="M347.3,45.3c0-0.1,0-0.1-0.1-0.2c-0.1,0-0.1-0.1-0.2-0.1c-0.1,0-0.1,0-0.2,0
			c-0.1,0-0.1,0.1-0.1,0.1c-0.2,0.7-0.5,1.3-1,1.6c-0.5,0.4-1.1,0.5-1.8,0.5c-0.5,0-1.1-0.1-1.6-0.3c-0.6-0.2-1-0.6-1.3-1.1l0-6.4
			h0.4c0.2,0,0.5,0,0.9,0c0.3,0,0.7,0,1.1,0c0.4,0,0.7,0.1,1,0.1c0.3,0.1,0.5,0.1,0.6,0.2c0.1,0.1,0.1,0.2,0.2,0.3
			c0,0.1,0.1,0.3,0.1,0.4c0,0.1,0.1,0.2,0.1,0.3c0.1,0.1,0.1,0.2,0.2,0.3c0.1,0.1,0.2,0.1,0.3,0.1c0.1,0,0.2-0.1,0.2-0.2
			c0.1-0.6,0.1-1.2,0.2-1.8c0-0.2,0.1-0.5,0.1-0.7c0-0.2,0.1-0.5,0.1-0.7c0-0.1,0-0.1-0.1-0.2c-0.1,0-0.2-0.1-0.3,0
			c-0.1,0-0.2,0.1-0.3,0.1c-0.1,0.1-0.3,0.1-0.5,0.2c-0.2,0.1-0.3,0.1-0.5,0.2c-0.2,0.1-0.3,0.1-0.4,0.1l-3.5,0V32
			c0.1,0,0.2,0,0.2,0c0,0,0.1,0,0.2,0c0.2,0,0.3,0,0.5,0c0.2,0,0.3,0,0.5,0c0.1,0,0.3,0,0.4,0c0.1,0,0.3,0,0.4,0
			c0.7,0,1.2,0.1,1.6,0.3c0.4,0.2,0.7,0.7,0.7,1.4c0,0.1,0.1,0.2,0.3,0.2c0.2,0,0.3-0.1,0.3-0.2c0-0.1,0-0.1,0-0.2
			c0,0,0-0.1,0.1-0.2c0.1-0.4,0.2-0.8,0.3-1.3c0.1-0.4,0.2-0.9,0.2-1.3c0-0.1,0-0.1-0.1-0.2c-0.1,0-0.2,0-0.3,0
			c-0.2,0.1-0.3,0.2-0.4,0.2l-9.2,0c-0.1,0-0.2,0-0.3,0.1c0,0.1,0,0.2,0.1,0.2c0.2,0.1,0.3,0.2,0.5,0.3c0.2,0.1,0.3,0.1,0.5,0.1
			c0.1,0,0.2,0.1,0.3,0.1c0.1,0,0.2,0.1,0.3,0.2c0.1,0.1,0.2,0.2,0.2,0.3c0,0.1,0.1,0.3,0.1,0.5l0,13.3c0,0.3,0,0.5,0,0.8
			c0,0.2-0.1,0.5-0.2,0.7c-0.1,0.2-0.2,0.3-0.4,0.5c-0.2,0.1-0.4,0.2-0.7,0.2c-0.2,0-0.2,0.1-0.2,0.2c0,0.1,0.1,0.2,0.2,0.2
			c0.6,0.1,1.2,0.1,1.8,0.1c0.7,0,1.3,0,2,0c0.4,0,0.7,0,1.1,0c0.4,0,0.7,0,1.1,0l3,0l0.4-0.1c0.1,0,0.2-0.1,0.2-0.2l0.1-0.6
			c0-0.4,0.1-0.8,0.2-1.1C347.1,46.1,347.2,45.7,347.3,45.3L347.3,45.3L347.3,45.3z"/>
		<path id="XMLID_32_" class="st5" d="M358.5,43.7c0-0.6-0.1-1.1-0.3-1.6c-0.2-0.5-0.5-1-0.8-1.4c-0.4-0.4-0.7-0.9-1.2-1.3
			c-0.4-0.4-0.9-0.8-1.4-1.2c-0.4-0.3-0.8-0.7-1.1-1c-0.4-0.3-0.7-0.6-1-1c-0.3-0.3-0.5-0.7-0.7-1.1c-0.2-0.4-0.3-0.8-0.3-1.2
			c0-0.4,0.1-0.8,0.2-1.1c0.1-0.3,0.3-0.6,0.6-0.8c0.2-0.2,0.5-0.4,0.9-0.5c0.3-0.1,0.7-0.2,1-0.2c0.4,0,0.7,0.1,1.1,0.2
			c0.3,0.1,0.6,0.3,0.9,0.5c0.3,0.2,0.4,0.5,0.6,0.8c0.1,0.3,0.2,0.7,0.2,1.1c0,0.1,0.1,0.2,0.2,0.2c0.1,0,0.2,0,0.3-0.1
			c0.2-0.3,0.4-0.7,0.4-1.1c0-0.5,0-0.9,0-1.3l0-0.9c0-0.1-0.1-0.2-0.2-0.2c-0.7-0.2-1.5-0.3-2.4-0.3c-0.6,0-1.3,0.1-2,0.2
			c-0.7,0.2-1.4,0.4-2,0.8c-0.6,0.3-1.1,0.8-1.6,1.3c-0.4,0.5-0.6,1.2-0.6,1.9c0,0.5,0.1,1,0.3,1.4c0.2,0.5,0.5,0.9,0.8,1.4
			c0.3,0.5,0.7,0.9,1.2,1.4c0.5,0.4,0.9,0.9,1.4,1.3l0,0c0.4,0.4,0.8,0.8,1.2,1.2c0.4,0.4,0.8,0.8,1.1,1.2c0.3,0.4,0.6,0.8,0.7,1.2
			c0.2,0.4,0.3,0.8,0.3,1.2c0,0.4-0.1,0.8-0.3,1.1c-0.2,0.3-0.5,0.6-0.8,0.9c-0.3,0.2-0.7,0.4-1,0.5c-0.4,0.1-0.8,0.2-1.1,0.2
			c-0.4,0-0.8-0.1-1.2-0.2c-0.4-0.1-0.7-0.3-1-0.5c-0.3-0.2-0.5-0.5-0.7-0.9c-0.2-0.3-0.2-0.7-0.2-1.2l0-0.4c0-0.1,0-0.1-0.1-0.1
			c0,0-0.1,0-0.2,0c-0.1,0-0.1,0-0.2,0c-0.1,0-0.1,0.1-0.1,0.1c0,0.1-0.1,0.3-0.1,0.4c0,0.2-0.1,0.3-0.1,0.5
			c-0.1,0.2-0.1,0.4-0.2,0.7c0,0.2-0.1,0.5-0.1,0.7c0,0.4,0.1,0.8,0.3,1c0.2,0.3,0.4,0.5,0.7,0.7c0.3,0.2,0.6,0.3,1,0.4
			c0.4,0.1,0.7,0.1,1,0.1c0.7,0,1.4-0.1,2.1-0.4c0.7-0.2,1.4-0.6,2-1c0.6-0.4,1.1-1,1.5-1.6C358.2,45.2,358.5,44.5,358.5,43.7
			L358.5,43.7L358.5,43.7z"/>
		<path id="XMLID_217_" class="st5" d="M228.1,32.7c-0.4-0.6-0.8-1-1.4-1.3c-0.6-0.3-1.2-0.5-1.9-0.6c-0.7-0.1-1.5-0.1-2.2-0.1l-2,0
			c-0.2,0-0.5,0-0.7,0c-0.2,0-0.5,0-0.7,0c-0.3,0-0.5,0-0.8,0c-0.2,0-0.5,0-0.8,0l-0.5,0c-0.1,0-0.2,0-0.3,0.1c0,0.1-0.1,0.1,0,0.2
			c0.1,0.2,0.2,0.3,0.4,0.3c0.2,0,0.4,0.1,0.6,0.1c0.1,0,0.2,0,0.3,0.1c0.1,0,0.2,0.1,0.3,0.1c0.1,0.1,0.2,0.2,0.2,0.3
			c0.1,0.1,0.1,0.3,0.1,0.6l-0.1,13.4c0,0.4,0,0.7,0,1c0,0.2-0.1,0.4-0.2,0.6c-0.1,0.1-0.2,0.3-0.4,0.3c-0.2,0.1-0.5,0.1-0.8,0.2
			c-0.2,0-0.2,0.1-0.2,0.2c0,0.1,0.1,0.2,0.3,0.2c1,0.1,2,0.1,2.9,0.1c1,0,1.9,0,2.9,0c0.1,0,0.2,0,0.3-0.1c0.1-0.1,0.1-0.1,0-0.2
			c-0.1-0.2-0.2-0.3-0.4-0.3c-0.2,0-0.4,0-0.6-0.1c-0.1,0-0.3,0-0.4-0.1c-0.2,0-0.3-0.1-0.4-0.2c0,0-0.1-0.1-0.1-0.3
			c0-0.2-0.1-0.4-0.1-0.6c0-0.2-0.1-0.4-0.1-0.6c0-0.2,0-0.3,0-0.2l0-5.2l0-0.1h0v0c0.7,0.1,1.6,0.1,2.1,0.1c0.8,0,1.5-0.2,2.1-0.5
			c0.6-0.3,1.2-0.8,1.7-1.3c0.5-0.5,0.8-1.1,1.1-1.8c0.3-0.7,0.4-1.4,0.4-2.1C228.6,34.1,228.4,33.3,228.1,32.7L228.1,32.7
			L228.1,32.7z M225.3,38.9c-1,1-3.1,1-4.1,0.8l0,0l0,0c0,0,0,0,0,0c0,0,0.1-7.7,0.1-7.7c0.2-0.1,0.5-0.1,0.7-0.2
			c0.3-0.1,0.5-0.1,0.8-0.1c0.6,0,1.1,0.1,1.5,0.4c0.4,0.3,0.8,0.6,1.1,1c0.3,0.4,0.5,0.9,0.7,1.4c0.2,0.5,0.2,1.1,0.2,1.6
			C226.3,37.3,226,38.2,225.3,38.9L225.3,38.9L225.3,38.9z"/>
	</g>
	<g id="XMLID_201_">
		<path id="XMLID_29_" class="st5" d="M139.3,46.7c0,0.1-0.1,0.1-0.2,0.1l-2.5,0c-0.1,0-0.2,0-0.4,0c-0.2,0-0.3,0-0.5,0
			c-0.2,0-0.4,0-0.5-0.1c-0.2,0-0.3-0.1-0.4-0.1c-0.1,0-0.1-0.1-0.1-0.2c0.1-0.1,0.1-0.1,0.2-0.1c0.1,0,0.2,0.1,0.3,0.1
			c0.1,0,0.2-0.1,0.3-0.2c0.1-0.1,0.2-0.3,0.2-0.4c0.1-0.2,0.1-0.3,0.1-0.5c0-0.2,0-0.3,0-0.4v-4.9h-7.1v4.9c0,0.3,0,0.5,0.1,0.7
			c0,0.2,0.1,0.4,0.2,0.5c0.1,0.1,0.2,0.2,0.4,0.3c0.2,0.1,0.4,0.1,0.7,0.1c0.1,0,0.2,0,0.2,0.1c0,0.1,0,0.2-0.2,0.2
			c-0.7,0-1.4,0.1-2.2,0.1c-0.7,0-1.5,0-2.2-0.1c-0.1,0-0.2-0.1-0.2-0.2c0-0.1,0-0.1,0.2-0.2c0.3,0,0.5-0.1,0.6-0.2
			c0.1-0.1,0.2-0.1,0.3-0.3c0.1-0.1,0.1-0.2,0.1-0.4c0-0.2,0-0.4,0-0.7l0-9.9c0-0.2,0-0.4-0.1-0.5c0-0.1-0.1-0.2-0.2-0.3
			c-0.1-0.1-0.2-0.1-0.2-0.1c-0.1,0-0.2,0-0.3,0c-0.2,0-0.3,0-0.4-0.1c-0.1,0-0.2-0.1-0.2-0.2c0-0.1,0-0.1,0-0.2
			c0,0,0.1-0.1,0.2-0.1c0.7,0,1.4,0,2.1,0c0.7,0,1.4,0.1,2.1,0.1c0.1,0,0.2,0.1,0.2,0.2c0,0.1-0.1,0.2-0.2,0.2
			c-0.3,0-0.5,0.1-0.7,0.3c-0.2,0.2-0.3,0.4-0.3,0.7V39h7.1v-4.1c0-0.2,0-0.4-0.1-0.5c-0.1-0.2-0.2-0.3-0.4-0.3c-0.1,0-0.1,0-0.2,0
			c-0.2,0-0.4,0-0.5-0.1c-0.2,0-0.3-0.1-0.3-0.3c0,0,0-0.1,0.1-0.1c0,0,0.1-0.1,0.2-0.1c0.7,0,1.4,0,2.1,0c0.7,0,1.4,0,2.1,0.1
			c0.1,0,0.2,0.1,0.2,0.2c0,0.1,0,0.1-0.2,0.2c-0.3,0.1-0.6,0.1-0.8,0.3c-0.2,0.1-0.3,0.4-0.3,0.7l0,9.9c0,0.1,0,0.2,0,0.3
			c0,0.1,0.1,0.3,0.1,0.5c0,0.2,0.1,0.3,0.1,0.4c0,0.1,0.1,0.2,0.1,0.2c0,0,0.1,0,0.2,0c0.1,0,0.2,0,0.2,0c0.1,0,0.3,0,0.4,0.1
			c0.1,0,0.3,0.1,0.4,0.2C139.3,46.6,139.4,46.6,139.3,46.7L139.3,46.7L139.3,46.7z"/>
		<path id="XMLID_212_" class="st5" d="M153.1,43c-0.3,0.7-0.8,1.3-1.3,1.9c-0.6,0.5-1.2,1-1.9,1.3c-0.7,0.3-1.5,0.6-2.4,0.8
			c-0.1,0-0.2,0-0.3,0c-0.1,0-0.2,0-0.3,0c-0.1,0-0.2,0-0.3,0c-0.1,0-0.2,0-0.3,0c-0.5,0-1-0.1-1.5-0.3c-0.5-0.2-1-0.4-1.5-0.7
			c-0.5-0.3-0.9-0.7-1.4-1.1c-0.4-0.4-0.8-0.9-1.1-1.3c-0.3-0.5-0.6-1-0.8-1.5c-0.2-0.5-0.3-1-0.3-1.6c0-1,0.1-2,0.3-2.8
			c0.2-0.8,0.6-1.5,1.1-2.1c0.5-0.6,1.1-1.1,1.9-1.5c0.8-0.4,1.7-0.7,2.9-1c0.2,0,0.3-0.1,0.5-0.1c0.2,0,0.4,0,0.5,0
			c1.1,0,2.1,0.2,2.9,0.7c0.8,0.5,1.5,1,2.1,1.8c0.5,0.7,1,1.5,1.2,2.4c0.3,0.9,0.4,1.8,0.4,2.6C153.6,41.5,153.4,42.3,153.1,43
			L153.1,43L153.1,43z M151.4,38.2c-0.2-0.8-0.6-1.5-1-2.1c-0.4-0.6-1-1.1-1.6-1.5c-0.6-0.4-1.4-0.6-2.2-0.6c-0.8,0-1.5,0.1-2.1,0.4
			c-0.6,0.3-1.1,0.7-1.6,1.2c-0.4,0.5-0.7,1.1-1,1.8c-0.2,0.7-0.3,1.4-0.3,2.2c0,0.8,0.1,1.5,0.3,2.3c0.2,0.8,0.6,1.5,1,2.1
			c0.5,0.6,1,1.1,1.7,1.5c0.7,0.4,1.4,0.6,2.3,0.6c0.8,0,1.5-0.2,2.1-0.5c0.6-0.3,1.1-0.7,1.5-1.2c0.4-0.5,0.7-1.1,0.9-1.8
			c0.2-0.7,0.3-1.4,0.3-2.2C151.8,39.8,151.7,39,151.4,38.2L151.4,38.2L151.4,38.2z"/>
		<path id="XMLID_26_" class="st5" d="M161.1,44.8c-0.3,0.5-0.7,0.9-1.2,1.2c-0.5,0.3-1,0.6-1.5,0.8c-0.6,0.2-1.1,0.3-1.6,0.3
			c-0.2,0-0.5,0-0.8-0.1c-0.3-0.1-0.5-0.1-0.7-0.3c-0.2-0.1-0.4-0.3-0.6-0.5c-0.1-0.2-0.2-0.5-0.2-0.8c0-0.2,0-0.4,0.1-0.5
			c0-0.2,0.1-0.3,0.1-0.5c0-0.1,0-0.3,0.1-0.4c0-0.1,0-0.2,0.1-0.3c0,0,0-0.1,0.1-0.1c0,0,0.1,0,0.1,0c0.1,0,0.1,0,0.1,0
			c0,0,0.1,0.1,0.1,0.1l0,0.3c0,0.3,0,0.6,0.2,0.9c0.1,0.3,0.3,0.5,0.5,0.7c0.2,0.2,0.5,0.3,0.8,0.4c0.3,0.1,0.6,0.1,0.9,0.1
			c0.3,0,0.6,0,0.8-0.1c0.3-0.1,0.5-0.2,0.8-0.4c0.2-0.2,0.4-0.4,0.6-0.6c0.1-0.2,0.2-0.5,0.2-0.8c0-0.3-0.1-0.6-0.2-0.9
			c-0.1-0.3-0.3-0.6-0.6-0.9c-0.2-0.3-0.5-0.6-0.8-0.9c-0.3-0.3-0.6-0.6-0.9-0.9l0,0c-0.3-0.3-0.7-0.7-1-1c-0.3-0.3-0.6-0.7-0.9-1
			c-0.3-0.3-0.5-0.7-0.6-1c-0.2-0.4-0.2-0.7-0.2-1.1c0-0.5,0.2-1,0.5-1.4c0.3-0.4,0.7-0.7,1.2-1c0.5-0.3,1-0.4,1.5-0.6
			c0.5-0.1,1-0.2,1.5-0.2c0.6,0,1.2,0.1,1.8,0.2c0.1,0,0.1,0.1,0.1,0.2l0,0.6c0,0.3,0,0.7,0,1c0,0.3-0.1,0.6-0.3,0.8
			c-0.1,0.1-0.1,0.1-0.2,0.1c-0.1,0-0.1-0.1-0.1-0.2c0-0.3-0.1-0.6-0.2-0.8c-0.1-0.2-0.2-0.4-0.4-0.6c-0.2-0.2-0.4-0.3-0.7-0.4
			c-0.2-0.1-0.5-0.1-0.8-0.1c-0.3,0-0.5,0-0.8,0.1c-0.2,0.1-0.5,0.2-0.6,0.4c-0.2,0.2-0.3,0.4-0.4,0.6c-0.1,0.2-0.2,0.5-0.2,0.8
			c0,0.3,0.1,0.6,0.2,0.9c0.1,0.3,0.3,0.5,0.5,0.8c0.2,0.3,0.5,0.5,0.8,0.7c0.3,0.2,0.6,0.5,0.8,0.7c0.3,0.3,0.7,0.6,1,0.9
			c0.3,0.3,0.6,0.6,0.9,0.9c0.3,0.3,0.5,0.7,0.6,1c0.2,0.4,0.2,0.8,0.2,1.2C161.5,43.8,161.4,44.3,161.1,44.8L161.1,44.8L161.1,44.8
			z"/>
		<path id="XMLID_25_" class="st5" d="M176.7,46.7c0,0.1-0.1,0.1-0.2,0.1c-0.3,0-0.6,0-0.8,0c-0.2,0-0.5,0-0.8,0c-0.3,0-0.6,0-0.9,0
			c-0.5,0-1,0-1.4,0c-0.4,0-0.7,0-0.8,0c0,0-0.1-0.1-0.1-0.1c0,0,0-0.1,0-0.1c0,0,0.1-0.1,0.1-0.1c0,0,0.1,0,0.1,0
			c0.1,0,0.2,0,0.3,0c0.2,0,0.3-0.1,0.3-0.1c0.1,0,0.2-0.1,0.3-0.2c0.1-0.1,0.2-0.3,0.2-0.4c0.1-0.2,0.1-0.3,0.1-0.5
			c0-0.2,0-0.3,0-0.4l0-9.8c0-0.4-0.1-0.6-0.3-0.7c-0.2-0.1-0.5-0.2-0.8-0.3c-0.1,0-0.2-0.1-0.2-0.2c0-0.1,0.1-0.1,0.2-0.2
			c0.3,0,0.7,0,1,0c0.3,0,0.7,0,1,0c0.3,0,0.7,0,1,0c0.3,0,0.7,0,1,0c0.1,0,0.2,0.1,0.2,0.2c0,0.1,0,0.1-0.2,0.2
			c-0.3,0.1-0.6,0.1-0.8,0.3c-0.2,0.1-0.3,0.4-0.3,0.7v9.8c0,0.1,0,0.2,0,0.3c0,0.1,0.1,0.3,0.1,0.4c0,0.2,0.1,0.3,0.1,0.4
			c0,0.1,0.1,0.2,0.1,0.3c0.1,0,0.1,0,0.2,0.1c0.1,0,0.2,0,0.2,0c0.1,0,0.3,0,0.4,0c0.1,0,0.3,0.1,0.4,0.2
			C176.7,46.6,176.7,46.6,176.7,46.7L176.7,46.7L176.7,46.7z"/>
		<path id="XMLID_24_" class="st5" d="M188.6,35c0,0.3-0.1,0.6-0.2,1c0,0.1-0.1,0.1-0.2,0.1c-0.1,0-0.2,0-0.2-0.1
			c-0.1-0.5-0.3-0.9-0.7-1.1c-0.4-0.2-0.8-0.3-1.3-0.3c-0.1,0-0.2,0-0.4,0c-0.1,0-0.2,0-0.3,0c-0.1,0-0.2,0-0.4,0
			c-0.1,0-0.3,0-0.3,0c-0.1,0-0.2,0-0.3,0c-0.1,0-0.2,0-0.3,0l0,10.1c0,0,0,0.1,0,0.3c0,0.1,0,0.3,0.1,0.4c0,0.1,0,0.3,0.1,0.4
			c0,0.1,0,0.2,0.1,0.2c0.1,0.1,0.2,0.2,0.4,0.2c0.1,0,0.2,0,0.3,0.1c0.2,0,0.3,0,0.4,0.1c0.1,0,0.2,0.1,0.3,0.2c0,0.1,0,0.1,0,0.2
			c0,0-0.1,0.1-0.2,0.1c-0.7,0-1.5,0-2.2,0c-0.7,0-1.4,0-2.2,0c-0.1,0-0.2-0.1-0.2-0.1c0-0.1,0-0.1,0.2-0.2c0.2,0,0.4-0.1,0.6-0.2
			c0.1-0.1,0.2-0.1,0.3-0.2c0.1-0.1,0.1-0.2,0.1-0.4c0-0.2,0-0.4,0-0.7l0-10.4h-2.8c-0.3,0-0.7,0.1-0.9,0.4
			c-0.3,0.2-0.5,0.5-0.6,0.8c0,0.1-0.1,0.1-0.2,0.1c-0.1,0-0.2-0.1-0.2-0.1c0,0,0-0.1,0-0.1c0,0,0-0.1,0-0.2c0-0.2,0-0.4,0.1-0.7
			c0.1-0.3,0.1-0.5,0.2-0.8c0-0.1,0.1-0.2,0.1-0.3c0-0.1,0-0.2,0.1-0.3c0-0.1,0.1-0.1,0.1-0.1c0.1,0,0.1,0,0.2,0
			c0.1,0,0.2,0.1,0.3,0.1c0.1,0,0.3,0.1,0.4,0.1c0.2,0,0.3,0.1,0.4,0.1c0.1,0,0.2,0,0.3,0l7.6,0c0.1,0,0.2,0,0.3,0
			c0.1,0,0.2-0.1,0.3-0.1c0.1,0,0.1,0,0.2,0c0.1,0,0.1,0,0.2,0c0.1,0,0.1,0,0.2,0c0.1,0,0.1,0.1,0.1,0.1l0,0.4
			C188.7,34.3,188.7,34.7,188.6,35L188.6,35L188.6,35z"/>
		<path id="XMLID_206_" class="st5" d="M199.9,46.8c-0.3,0-0.7,0-1.1,0c-0.3,0-0.6,0-0.9,0c-0.4,0-0.7,0-0.9,0c-0.1,0-0.2,0-0.2-0.1
			c0,0,0-0.1,0.1-0.2l0.6-0.3c-0.3-0.8-0.6-1.5-0.9-2.3c-0.3-0.8-0.6-1.5-0.8-2.3l-3.5,0c-0.1,0.2-0.2,0.5-0.4,0.9
			c-0.1,0.4-0.3,0.8-0.4,1.3c-0.1,0.4-0.3,0.8-0.4,1.2c-0.1,0.4-0.1,0.7-0.1,0.8c0,0.2,0.1,0.3,0.3,0.4c0.2,0.1,0.4,0.1,0.5,0.1
			c0.1,0,0.2,0.1,0.2,0.2c0,0.1-0.1,0.1-0.2,0.1l-3.7,0c0,0-0.1-0.1-0.1-0.1c0,0,0-0.1,0-0.1c0,0,0.1-0.1,0.1,0c0.1,0,0.1,0,0.1,0
			c0.2,0,0.3,0,0.5-0.1c0.1-0.1,0.3-0.2,0.4-0.3c0.1-0.1,0.3-0.3,0.4-0.4c0.1-0.2,0.2-0.3,0.2-0.5c0.3-0.8,0.6-1.6,0.9-2.4
			c0.3-0.8,0.6-1.6,0.8-2.4c0.4-1.2,0.8-2.3,1.3-3.4c0.4-1.1,0.9-2.3,1.3-3.4c0,0,0.1-0.1,0.1-0.1c0.1,0,0.1,0,0.2,0
			c0.2,0.2,0.4,0.6,0.6,1c0.2,0.4,0.3,0.8,0.4,1.2c0,0.1,0.1,0.1,0.1,0.2c0,0.1,0,0.1,0.1,0.2c0.1,0.4,0.3,0.8,0.5,1.2
			c0.2,0.4,0.3,0.8,0.5,1.2c0.2,0.6,0.4,1.2,0.7,1.8c0.2,0.6,0.5,1.2,0.7,1.9c0.2,0.6,0.5,1.2,0.8,1.8c0.3,0.6,0.5,1.2,0.8,1.7
			c0.2,0.3,0.4,0.6,0.7,0.7c0.3,0.1,0.6,0.2,1,0.2v0.3C200.6,46.8,200.2,46.8,199.9,46.8L199.9,46.8L199.9,46.8z M193.9,36.5
			c-0.2,0.8-0.5,1.5-0.7,2.2c-0.2,0.7-0.5,1.4-0.7,2.2l2.9,0L193.9,36.5L193.9,36.5z"/>
		<path id="XMLID_21_" class="st5" d="M210.3,44.4c0,0,0,0.1,0,0.2c0,0.4-0.1,0.8-0.1,1.2c0,0.4,0,0.7-0.1,1c-0.4,0-0.7-0.1-1.1-0.1
			c-0.4,0-0.7,0-1,0c-0.3,0-0.6,0-0.9,0c-0.3,0-0.6,0-1,0c-0.3,0-0.7,0-1,0c-0.3,0-0.6,0-1,0c-0.3,0-0.7,0-1,0.1c-0.3,0-0.6,0-1,0
			c-0.1,0-0.2-0.1-0.2-0.2c0-0.1,0.1-0.2,0.2-0.2c0.2,0,0.4-0.1,0.5-0.2c0.1-0.1,0.2-0.2,0.3-0.3c0.1-0.1,0.1-0.3,0.1-0.5
			c0-0.2,0-0.4,0-0.6l0-9.9c0-0.2,0-0.4-0.1-0.5c0-0.1-0.1-0.2-0.2-0.3c-0.1-0.1-0.1-0.1-0.2-0.1c-0.1,0-0.2,0-0.3,0
			c-0.2,0-0.3,0-0.4-0.1c-0.1,0-0.2-0.1-0.2-0.2c0-0.1,0-0.1,0-0.2c0,0,0.1-0.1,0.2-0.1h2.4c0.3,0,0.6,0,1,0c0.3,0,0.6,0,0.9,0.1
			c0.1,0,0.1,0.1,0.1,0.2c0,0.1-0.1,0.1-0.2,0.1l-0.3,0c-0.3,0-0.5,0-0.7,0.2c-0.2,0.2-0.3,0.4-0.3,0.7l0,9.1c0,0.6,0.2,1.1,0.6,1.5
			c0.4,0.4,0.9,0.5,1.5,0.5c0.6,0,1.1-0.2,1.6-0.5c0.5-0.3,0.9-0.8,1.1-1.3c0,0,0.1-0.1,0.1-0.1c0.1,0,0.1,0,0.1,0
			c0,0,0.1,0,0.1,0.1c0,0,0,0.1,0,0.1C210.4,44.3,210.4,44.4,210.3,44.4L210.3,44.4L210.3,44.4z"/>
		<path id="XMLID_202_" class="st5" d="M170.9,35c-0.3-0.4-0.6-0.7-1-1c-0.4-0.2-0.9-0.4-1.4-0.4c-0.5-0.1-1.1-0.1-1.6-0.1l-1.5,0
			c-0.2,0-0.4,0-0.5,0c-0.2,0-0.4,0-0.6,0c-0.2,0-0.4,0-0.6,0c-0.2,0-0.4,0-0.6,0l-0.4,0c-0.1,0-0.2,0-0.2,0.1c0,0,0,0.1,0,0.2
			c0.1,0.1,0.2,0.2,0.3,0.2c0.1,0,0.3,0.1,0.4,0.1c0.1,0,0.2,0,0.3,0c0.1,0,0.2,0.1,0.2,0.1c0.1,0.1,0.1,0.1,0.2,0.2
			c0,0.1,0.1,0.3,0.1,0.4l-0.1,10c0,0.3,0,0.5,0,0.7c0,0.2-0.1,0.3-0.1,0.4c-0.1,0.1-0.2,0.2-0.3,0.2c-0.1,0.1-0.3,0.1-0.6,0.2
			c-0.1,0-0.2,0.1-0.2,0.2c0,0.1,0.1,0.1,0.2,0.2c0.7,0,1.5,0.1,2.2,0.1c0.7,0,1.5,0,2.2,0c0.1,0,0.1,0,0.2-0.1c0,0,0-0.1,0-0.2
			c-0.1-0.1-0.2-0.2-0.3-0.2c-0.1,0-0.3,0-0.4,0c-0.1,0-0.2,0-0.3,0c-0.1,0-0.2-0.1-0.3-0.1c0,0-0.1-0.1-0.1-0.2
			c0-0.1-0.1-0.3-0.1-0.4c0-0.2-0.1-0.3-0.1-0.4c0-0.1,0-0.2,0-0.2l0-3.9l0-0.1h0v0c0.5,0.1,1.2,0.1,1.6,0c0.6,0,1.1-0.1,1.6-0.4
			c0.5-0.2,0.9-0.6,1.3-1c0.4-0.4,0.6-0.8,0.8-1.3c0.2-0.5,0.3-1,0.3-1.5C171.3,36,171.2,35.4,170.9,35L170.9,35L170.9,35z
			 M168.8,39.6c-0.8,0.7-2.3,0.7-3.1,0.6l0,0h0c0,0,0,0,0,0c0,0,0.1-5.8,0.1-5.8c0.2-0.1,0.4-0.1,0.5-0.2c0.2,0,0.4-0.1,0.6-0.1
			c0.4,0,0.8,0.1,1.1,0.3c0.3,0.2,0.6,0.5,0.8,0.8c0.2,0.3,0.4,0.7,0.5,1.1c0.1,0.4,0.2,0.8,0.2,1.2
			C169.6,38.4,169.4,39.1,168.8,39.6L168.8,39.6L168.8,39.6z"/>
	</g>
	<g id="XMLID_190_">
		<path id="XMLID_198_" class="st6" d="M16,47c-0.3,0.1-0.6,0.1-0.9,0.1c-0.5,0-1-0.1-1.4-0.3c-0.4-0.2-0.8-0.4-1.1-0.7
			c-0.3-0.3-0.7-0.7-1-1c-0.3-0.4-0.6-0.8-0.9-1.2c-0.3-0.4-0.5-0.8-0.8-1.1c-0.3-0.4-0.5-0.7-0.8-0.9c-0.2-0.2-0.5-0.3-0.8-0.4
			c-0.3,0-0.6-0.1-0.9-0.1c-0.1,0-0.2,0-0.3,0c-0.1,0-0.2,0-0.3,0v3.3c0,0.1,0,0.2,0,0.3c0,0.1,0,0.3,0.1,0.5c0,0.2,0.1,0.3,0.1,0.4
			c0,0.1,0.1,0.2,0.1,0.2c0.1,0,0.1,0,0.2,0.1c0.1,0,0.2,0,0.2,0c0.1,0,0.3,0,0.4,0.1c0.1,0,0.3,0.1,0.4,0.2
			c0.1,0.1,0.1,0.1,0.1,0.2c0,0.1-0.1,0.1-0.2,0.1c-0.7,0-1.5,0-2.2,0c-0.7,0-1.5,0-2.2-0.1c-0.1,0-0.2-0.1-0.2-0.2
			c0-0.1,0.1-0.1,0.2-0.2c0.3,0,0.5-0.1,0.6-0.2c0.1-0.1,0.2-0.1,0.3-0.3C4.9,45.9,5,45.8,5,45.6c0-0.2,0-0.4,0-0.7v-10
			c0-0.2,0-0.4-0.1-0.5c0-0.1-0.1-0.2-0.2-0.3c-0.1-0.1-0.2-0.1-0.2-0.1c-0.1,0-0.2,0-0.3,0c-0.2,0-0.3,0-0.4-0.1
			c-0.1,0-0.2-0.1-0.2-0.2c0-0.1,0-0.1,0-0.2c0,0,0.1-0.1,0.2-0.1h0.3h1.2c0.2,0,0.4,0,0.6,0c0.2,0,0.4,0,0.6,0c0.1,0,0.2,0,0.3,0
			c0.1,0,0.2,0,0.3,0h1c0.5,0,1,0,1.5,0.1c0.5,0.1,0.9,0.2,1.4,0.4c0.4,0.2,0.8,0.5,1.1,0.8c0.3,0.4,0.5,0.8,0.7,1.4
			c0,0.1,0,0.1,0,0.2c0,0.1,0,0.2,0,0.3c0,0.4-0.1,0.7-0.2,1.1c-0.1,0.4-0.3,0.7-0.5,1.1c-0.2,0.3-0.4,0.7-0.7,1
			c-0.2,0.3-0.5,0.6-0.8,0.8c0.2,0.2,0.4,0.5,0.6,0.7c0.2,0.3,0.4,0.6,0.6,0.9c0.4,0.5,0.7,1,1.1,1.5c0.4,0.5,0.8,1,1.2,1.4
			c0.4,0.4,0.9,0.7,1.3,1c0.4,0.2,0.9,0.3,1.4,0.2l0.1,0.3C16.6,46.9,16.3,47,16,47z M10.5,36.4c-0.1-0.4-0.3-0.8-0.5-1.1
			c-0.2-0.3-0.5-0.6-0.9-0.8c-0.3-0.2-0.7-0.3-1.2-0.3c-0.3,0-0.7,0.1-1,0.2v5.9c0.5,0.1,1,0.1,1.5,0.1c0.2,0,0.4,0,0.7,0
			c0.3,0,0.5-0.1,0.6-0.2c0.2-0.1,0.3-0.3,0.4-0.5c0.1-0.2,0.2-0.4,0.3-0.6c0.1-0.2,0.1-0.4,0.2-0.7c0-0.2,0-0.5,0-0.7
			C10.7,37.3,10.6,36.9,10.5,36.4z"/>
		<path id="XMLID_196_" class="st6" d="M25.3,45.2c0,0.3-0.1,0.6-0.1,0.8l-0.1,0.4c0,0.1-0.1,0.1-0.2,0.1l-0.3,0.1h-2.3
			c-0.3,0-0.5,0-0.8,0c-0.3,0-0.5,0-0.8,0c-0.5,0-1,0-1.5,0c-0.5,0-0.9,0-1.4-0.1c-0.1,0-0.2-0.1-0.2-0.2c0-0.1,0.1-0.2,0.2-0.2
			c0.2,0,0.4-0.1,0.5-0.1c0.1-0.1,0.2-0.2,0.3-0.3c0.1-0.1,0.1-0.3,0.1-0.5c0-0.2,0-0.4,0-0.6v-9.9c0-0.2,0-0.3-0.1-0.4
			c0-0.1-0.1-0.2-0.2-0.2c-0.1-0.1-0.1-0.1-0.2-0.1c-0.1,0-0.2,0-0.2-0.1c-0.1,0-0.3-0.1-0.4-0.1c-0.1,0-0.2-0.1-0.4-0.2
			c-0.1,0-0.1-0.1-0.1-0.2c0-0.1,0.1-0.1,0.2-0.1h6.9c0.1,0,0.2,0,0.3-0.1c0.1,0,0.2,0,0.2,0c0.1,0,0.1,0.1,0.1,0.1
			c0,0.3-0.1,0.7-0.2,1c-0.1,0.3-0.1,0.7-0.2,1c0,0,0,0.1,0,0.1c0,0,0,0.1,0,0.1c0,0.1-0.1,0.1-0.2,0.1c-0.1,0-0.2,0-0.2-0.1
			c0-0.5-0.2-0.9-0.5-1.1c-0.3-0.2-0.7-0.3-1.2-0.3c-0.1,0-0.2,0-0.3,0c-0.1,0-0.2,0-0.3,0c-0.1,0-0.2,0-0.4,0c-0.1,0-0.2,0-0.4,0
			c-0.1,0-0.2,0-0.2,0c0,0-0.1,0-0.2,0v4.8h2.6c0.1,0,0.1,0,0.3-0.1c0.1,0,0.2-0.1,0.4-0.2c0.1-0.1,0.2-0.1,0.3-0.2
			c0.1,0,0.2-0.1,0.2-0.1c0.1,0,0.1,0,0.2,0c0.1,0,0.1,0.1,0.1,0.1c0,0.2,0,0.4-0.1,0.5c0,0.2,0,0.4-0.1,0.5
			c-0.1,0.4-0.1,0.9-0.2,1.4c0,0.1,0,0.1-0.1,0.1c-0.1,0-0.2,0-0.2-0.1c-0.1-0.1-0.1-0.2-0.2-0.2c0-0.1-0.1-0.2-0.1-0.3
			c0-0.1-0.1-0.2-0.1-0.3c0-0.1-0.1-0.2-0.1-0.2c-0.1-0.1-0.2-0.1-0.4-0.2c-0.2,0-0.5-0.1-0.7-0.1c-0.3,0-0.5,0-0.8,0
			c-0.3,0-0.5,0-0.6,0h-0.3v4.8c0.2,0.4,0.5,0.6,1,0.8c0.4,0.2,0.8,0.2,1.2,0.2c0.5,0,1-0.1,1.3-0.4c0.4-0.3,0.6-0.7,0.8-1.2
			c0,0,0-0.1,0.1-0.1c0,0,0.1,0,0.1,0c0,0,0.1,0,0.1,0.1c0,0,0.1,0.1,0,0.1C25.4,44.7,25.4,45,25.3,45.2z"/>
		<path id="XMLID_193_" class="st6" d="M38.9,46.8c-0.3,0-0.7,0-1.1,0c-0.3,0-0.6,0-1,0c-0.4,0-0.7,0-0.9,0c-0.1,0-0.2,0-0.2-0.1
			c0,0,0-0.1,0.1-0.2l0.6-0.3c-0.3-0.8-0.6-1.5-0.9-2.3c-0.3-0.8-0.6-1.5-0.9-2.3h-3.5c-0.1,0.2-0.2,0.5-0.4,0.9
			c-0.2,0.4-0.3,0.8-0.4,1.3c-0.1,0.4-0.3,0.9-0.4,1.2c-0.1,0.4-0.2,0.7-0.2,0.8c0,0.2,0.1,0.3,0.3,0.4c0.2,0.1,0.4,0.1,0.5,0.1
			c0.1,0,0.2,0.1,0.2,0.2c0,0.1-0.1,0.1-0.2,0.1l-3.7,0c0,0-0.1-0.1-0.1-0.1c0,0,0-0.1,0-0.1c0,0,0.1-0.1,0.1,0c0.1,0,0.1,0,0.1,0
			c0.2,0,0.3,0,0.5-0.1c0.1-0.1,0.3-0.2,0.4-0.3c0.1-0.1,0.3-0.3,0.4-0.5c0.1-0.2,0.2-0.3,0.2-0.5c0.3-0.8,0.6-1.6,0.9-2.4
			c0.3-0.8,0.6-1.6,0.9-2.4c0.4-1.2,0.8-2.3,1.3-3.5c0.4-1.2,0.9-2.3,1.3-3.5c0,0,0.1-0.1,0.1-0.1c0.1,0,0.1,0,0.2,0
			c0.2,0.2,0.4,0.6,0.6,1c0.2,0.4,0.3,0.8,0.5,1.2c0,0.1,0.1,0.1,0.1,0.2c0,0.1,0,0.1,0.1,0.2c0.1,0.4,0.3,0.8,0.5,1.2
			c0.2,0.4,0.3,0.8,0.5,1.2c0.2,0.6,0.4,1.2,0.7,1.8c0.2,0.6,0.5,1.3,0.7,1.9c0.3,0.6,0.5,1.3,0.8,1.9c0.3,0.6,0.5,1.2,0.8,1.7
			c0.2,0.3,0.4,0.6,0.7,0.7c0.3,0.1,0.6,0.2,1,0.3v0.3C39.6,46.8,39.3,46.8,38.9,46.8z M32.9,36.4c-0.2,0.8-0.5,1.5-0.7,2.2
			c-0.2,0.7-0.5,1.4-0.7,2.2h2.9L32.9,36.4z"/>
		<path id="XMLID_191_" class="st6" d="M49.5,44.4c0,0,0,0.1,0,0.2c0,0.4-0.1,0.8-0.1,1.2c0,0.4,0,0.7-0.1,1c-0.4,0-0.7-0.1-1.1-0.1
			c-0.4,0-0.7,0-1.1,0c-0.3,0-0.6,0-1,0c-0.3,0-0.6,0-1,0c-0.3,0-0.7,0-1,0c-0.3,0-0.7,0-1,0c-0.3,0-0.7,0-1,0.1c-0.3,0-0.6,0-1,0
			c-0.1,0-0.2-0.1-0.2-0.2c0-0.1,0.1-0.2,0.2-0.2c0.2,0,0.4-0.1,0.5-0.2c0.1-0.1,0.2-0.2,0.3-0.4c0.1-0.1,0.1-0.3,0.2-0.5
			c0-0.2,0-0.4,0-0.6v-9.9c0-0.2,0-0.4-0.1-0.5c0-0.1-0.1-0.2-0.2-0.3c-0.1-0.1-0.2-0.1-0.2-0.1c-0.1,0-0.2,0-0.3,0
			c-0.2,0-0.3,0-0.4-0.1c-0.1,0-0.2-0.1-0.3-0.2c0-0.1,0-0.1,0-0.2c0,0,0.1-0.1,0.2-0.1h2.5c0.3,0,0.7,0,1,0c0.3,0,0.6,0,0.9,0.1
			c0.1,0,0.1,0.1,0.1,0.2c0,0.1-0.1,0.1-0.2,0.1l-0.3,0c-0.3,0-0.5,0-0.7,0.2c-0.2,0.2-0.3,0.4-0.3,0.7v9.1c0,0.6,0.2,1.1,0.6,1.5
			c0.4,0.4,0.9,0.5,1.5,0.5c0.6,0,1.1-0.2,1.6-0.5c0.5-0.3,0.9-0.8,1.1-1.3c0,0,0.1-0.1,0.1-0.1c0.1,0,0.1,0,0.1,0
			c0,0,0.1,0,0.1,0.1c0,0,0,0.1,0,0.1C49.5,44.3,49.5,44.3,49.5,44.4z"/>
	</g>
</g>
</svg>
