<svg id="Layer_1" data-name="Layer 1" xmlns="http://www.w3.org/2000/svg" xmlns:xlink="http://www.w3.org/1999/xlink" viewBox="0 0 235 42.59"><defs><style>.cls-1{fill:none;}.cls-2{clip-path:url(#clip-path);}.cls-3,.cls-4{fill:#1f3f77;}.cls-4,.cls-5{fill-rule:evenodd;}.cls-5{fill:#ffc20e;}</style><clipPath id="clip-path" transform="translate(-5.5 -1.7)"><rect class="cls-1" x="5.5" y="1.7" width="235" height="42.59"/></clipPath></defs><title>OC_logo</title><g class="cls-2"><rect class="cls-3" x="109.85" width="2.32" height="42.59"/></g><g class="cls-2"><path class="cls-4" d="M21.2,33.78A9.43,9.43,0,0,1,8,33.78C5.54,31.36,5.5,29,5.5,23s0-8.35,2.45-10.78a9.43,9.43,0,0,1,13.25,0C23.62,14.65,23.66,17,23.66,23s0,8.36-2.46,10.78M19.6,13.34a7.18,7.18,0,0,0-10,0c-1.89,1.9-2,3.95-2,9.66s.15,7.76,2,9.66a7.18,7.18,0,0,0,10.05,0c1.9-1.9,2-3.95,2-9.66s-.15-7.76-2-9.66M15,7.18H12.83L16.44,1.7h2.49Z" transform="translate(-5.5 -1.7)"/><polygon class="cls-4" points="28.5 9.81 28.5 34.57 26.49 34.57 26.49 9.81 18.6 9.81 18.6 8.02 36.42 8.02 36.42 9.81 28.5 9.81"/><rect class="cls-3" x="40.14" y="8.02" width="2.01" height="26.56"/><path class="cls-4" d="M60.9,36.5a9.28,9.28,0,0,1-6.62-2.72C51.85,31.36,51.82,29,51.82,23s0-8.35,2.46-10.78A9.33,9.33,0,0,1,60.9,9.5a10.28,10.28,0,0,1,7.48,3.32L67,14.16c-1.83-1.79-3.39-2.87-6.14-2.87a7,7,0,0,0-5,2.05c-1.89,1.9-2,3.95-2,9.66s.15,7.76,2,9.66a7,7,0,0,0,5,2.05c2.75,0,4.31-1.08,6.14-2.87l1.34,1.34A10.28,10.28,0,0,1,60.9,36.5" transform="translate(-5.5 -1.7)"/><path class="cls-4" d="M88.57,36.28l-2.3-6.46H73.91l-2.3,6.46H69.45L79.19,9.72H81l9.74,26.56ZM80.09,12.41,74.55,28H85.63Z" transform="translate(-5.5 -1.7)"/><path class="cls-4" d="M100.51,36.5A11.21,11.21,0,0,1,91.69,33l1.42-1.42a9.24,9.24,0,0,0,7.52,3.13c4.16,0,6.81-2,6.81-5.48A4.81,4.81,0,0,0,106,25.5c-1-.82-1.67-1.08-3.83-1.42l-3.08-.48a9.14,9.14,0,0,1-4.73-1.94,6.08,6.08,0,0,1-2.09-4.89c0-4.44,3.17-7.27,8.23-7.27a10.45,10.45,0,0,1,7.63,2.87l-1.3,1.31a8.6,8.6,0,0,0-6.44-2.47c-3.84,0-6.14,2.13-6.14,5.49a4.31,4.31,0,0,0,1.37,3.47,8.55,8.55,0,0,0,3.94,1.64l2.87.45c2.49.37,3.61.82,4.73,1.75a6.52,6.52,0,0,1,2.3,5.15c0,4.47-3.42,7.34-8.93,7.34" transform="translate(-5.5 -1.7)"/><path class="cls-5" d="M133.88,37.28a10.29,10.29,0,0,1-7.56-3.08c-2.84-2.84-2.75-6.35-2.75-11.2s-.09-8.36,2.75-11.2a10.33,10.33,0,0,1,7.56-3.08c5.23,0,9.32,3,10.31,8.88h-5.56c-.55-2.25-2-4-4.71-4a4.52,4.52,0,0,0-3.51,1.46C129.35,16.26,129,17.6,129,23s.31,6.74,1.37,7.93a4.52,4.52,0,0,0,3.51,1.46c2.75,0,4.16-1.74,4.71-4h5.56c-1,5.87-5.12,8.87-10.31,8.87" transform="translate(-5.5 -1.7)"/><path class="cls-5" d="M164.44,37l-1.64-5h-10l-1.69,5h-5.71L155.64,9h4.28L170.15,37Zm-6.53-19.8-3.54,10.22h7Z" transform="translate(-5.5 -1.7)"/><path class="cls-5" d="M187.7,37l-5.47-11.2h-3.94V37h-5.46V9h11c5.71,0,9.09,3.9,9.09,8.6a7.54,7.54,0,0,1-5.11,7.37L194,37Zm-4.25-23.19h-5.16v7.41h5.16a3.71,3.71,0,1,0,0-7.41" transform="translate(-5.5 -1.7)"/><path class="cls-5" d="M214.73,34.2a10.86,10.86,0,0,1-15.15,0c-2.83-2.84-2.75-6.35-2.75-11.2s-.08-8.36,2.75-11.2a10.86,10.86,0,0,1,15.15,0c2.83,2.84,2.8,6.35,2.8,11.2s0,8.36-2.8,11.2m-4-19.09a4.55,4.55,0,0,0-3.51-1.5,4.63,4.63,0,0,0-3.54,1.5c-1.06,1.19-1.33,2.49-1.33,7.89s.27,6.71,1.33,7.89a4.63,4.63,0,0,0,3.54,1.5,4.55,4.55,0,0,0,3.51-1.5c1.06-1.18,1.38-2.48,1.38-7.89s-.32-6.7-1.38-7.89" transform="translate(-5.5 -1.7)"/><polygon class="cls-5" points="216.82 35.34 216.82 7.25 222.29 7.25 222.29 30.45 235 30.45 235 35.34 216.82 35.34"/></g></svg>