<?xml version="1.0" encoding="utf-8"?>
<!-- Generator: Adobe Illustrator 16.0.0, SVG Export Plug-In . SVG Version: 6.00 Build 0)  -->
<!DOCTYPE svg PUBLIC "-//W3C//DTD SVG 1.1//EN" "http://www.w3.org/Graphics/SVG/1.1/DTD/svg11.dtd">
<svg version="1.1" id="Layer_1" xmlns="http://www.w3.org/2000/svg" xmlns:xlink="http://www.w3.org/1999/xlink" x="0px" y="0px"
	 width="572px" height="100px" viewBox="0 0 572 100" enable-background="new 0 0 572 100" xml:space="preserve">
<path fill="#FFFFFF" d="M250.853,61.039h7.958v-9.647h7.665c9.183,0,12.611-2.372,12.611-6.868c0-5.179-7.305-5.874-11.722-5.874
	h-16.511V61.039L250.853,61.039z M258.811,41.939h4.947c3.967,0,7.361-0.535,7.361,2.812c0,3.076-2.757,3.351-7.294,3.351h-5.014
	V41.939L258.811,41.939z M293,38.65h-7.958v22.389H293V38.65L293,38.65z M326.024,38.65v16.058h-0.129L310.04,38.65h-8.302v22.389
	h7.32v-16.31h0.126l16.113,16.31h8.045V38.65H326.024L326.024,38.65z M370.368,45.007c0.575-7.031-8.695-6.822-14.302-6.822
	c-10.881,0-14.493,3.228-14.493,7.689v6.978c0,6.199,3.612,8.657,14.493,8.657c7.052,0,10.344-0.688,14.11-1.68V48.542h-14.364
	v3.264h6.407v5.231c-1.214,0.435-3.222,1.072-6.203,0.993c-4.405-0.118-6.357-1.567-6.357-5.603v-6.208
	c0-4.683,4.87-4.838,6.722-4.838c3.422,0,5.774,0.989,5.774,3.626H370.368L370.368,45.007z M406.809,41.909l-5.244,0.001v6.257
	l5.312,0c3.227,0,6.369-0.513,6.369-3.229C413.245,41.778,410.104,41.909,406.809,41.909L406.809,41.909z M393.608,61.039V38.65
	h15.153c2.329,0,5.429,0.105,7.996,0.944c2.659,0.869,4.506,2.227,4.506,5.061c0,1.782-0.79,2.838-2.29,3.813
	c-1.008,0.655-2.322,1.128-3.925,1.44c0.768,0.296,1.228,0.658,1.799,1.062h0.004c0.207,0.146,0.41,0.31,0.604,0.488
	c0.188,0.173,0.354,0.352,0.494,0.529l0.007,0.009l0.008,0.011h-0.002l6.701,9.031h-8.588l-5.545-7.822
	c-1.027-1.063-2.24-1.596-3.702-1.736c-0.001,0-0.003,0.001-0.003,0l0,0c-0.787-0.074-1.697-0.086-2.692-0.086l-0.543-0.001h-2.026
	v9.647H393.608L393.608,61.039z M454.511,61.039h-25.981V38.65h25.598c0,1.193,0,2.525,0,3.718h-17.642v5.592h16.364
	c0,1.193,0,2.3,0,3.493h-16.364v6.101h18.025C454.511,58.748,454.511,59.847,454.511,61.039L454.511,61.039z M473.965,41.281
	c4.358,0.029,5.821,2.293,5.707,4.606c2.625,0,5.486,0,8.11,0c0.927-7.062-6.809-7.702-12.926-7.702
	c-6.724,0-15.735,0.243-15.735,8.125v6.326c0,8.522,8.179,9.072,15.482,8.874c6.608,0,14.195-0.645,13.929-8.141
	c-2.629,0-5.493,0-8.121,0c-0.055,3.817-2.872,4.852-6.279,4.829c-3.896-0.025-6.926-0.898-6.926-5.453v-5.483
	C467.206,42.488,469.386,41.281,473.965,41.281L473.965,41.281z M503.406,38.65c0,7.829,0,14.561,0,22.389c-2.574,0-5.384,0-7.958,0
	c0-7.828,0-14.56,0-22.389C498.022,38.65,500.832,38.65,503.406,38.65L503.406,38.65z M519.494,51.454v9.585
	c-2.574,0-5.383,0-7.957,0c0-7.828,0-14.56,0-22.389c8.234,0,16.471,0,24.705,0c0,1.193,0,2.525,0,3.718h-16.748v5.592h15.854
	c0,1.193,0,2.3,0,3.493H519.494L519.494,51.454z M566.237,61.039c-8.661,0-17.322,0-25.982,0c0-7.828,0-14.56,0-22.389
	c8.531,0,17.066,0,25.599,0v3.718h-17.643v5.592h16.365v3.493h-16.365v5.729h18.026V61.039L566.237,61.039z M216.663,61.039h7.957
	v-9.647h7.666c9.182,0,12.611-2.372,12.611-6.868c0-5.179-7.305-5.874-11.723-5.874h-16.511V61.039L216.663,61.039z M224.619,41.939
	h4.948c3.967,0,7.361-0.535,7.361,2.812c0,3.076-2.757,3.351-7.294,3.351h-5.015V41.939L224.619,41.939z M109.026,54.001
	c-0.421,6.378,7.307,7.518,13.473,7.509c4.569-0.005,14.301-0.063,14.301-6.471c0-8.26-18.98-6.196-18.592-11.171
	c0.125-1.594,1.646-2.495,4.993-2.495c4.61,0,5.066,1.961,5.002,3.727h8.213c0.552-6.211-7.181-6.915-12.769-6.915
	c-4.391,0-13.535,0.137-13.535,6.233c0,7.998,18.803,6.015,18.597,11.063c-0.073,1.814-2.007,2.573-5.824,2.594
	c-3.887,0.021-5.965-1.197-5.965-4.074H109.026L109.026,54.001z M150.665,61.039v-9.727h11.986v9.727h7.958V38.65h-7.958v9.168
	h-11.986V38.65h-7.958v22.389H150.665L150.665,61.039z M207.901,46.246c0-5.208-3.611-8.061-14.494-8.061
	c-10.883,0-14.493,2.869-14.493,8.061v7.203c0,5.191,3.61,8.061,14.493,8.061c10.882,0,14.494-2.853,14.494-8.061V46.246
	L207.901,46.246z M187,46.118c0-4.682,4.557-4.838,6.408-4.838s6.407,0.182,6.407,4.838v7.359c0,4.656-4.556,4.838-6.407,4.838
	S187,58.159,187,53.477V46.118z"/>
<g>
	<path fill-rule="evenodd" clip-rule="evenodd" fill="#ED1C24" d="M80.397,18.389c10.315,5.953,11.444,7.314,11.392,18.545v25.854
		c0.052,11.201-1.068,12.592-11.308,18.5L60.396,92.878c-11.113,6.414-12.365,6.42-23.462,0.016L16.89,81.326
		C6.591,75.382,5.463,74.015,5.515,62.788V36.935C5.465,26.109,7.571,23.776,16.89,18.398L36.944,6.825
		c11.08-6.395,12.34-6.392,23.427,0.006L80.397,18.389z"/>
	<path fill-rule="evenodd" clip-rule="evenodd" fill="#FFFFFF" d="M70.723,22.297c7.302,4.229,9.618,3.792,9.618,14.71v20.028
		c0.041,8.652-0.825,9.726-8.734,14.289l-15.515,8.954c-8.583,4.952-9.571,4.993-18.123,0.011l-15.876-9.25
		c-7.937-4.624-8.432-5.333-8.393-14.004v-19.97c-0.039-8.362,1.413-10.083,8.613-14.232l15.664-9.026
		c8.561-4.933,9.539-4.95,18.096,0.005L70.723,22.297L70.723,22.297z M50.299,52.267v12.886c0,4.404-6.604,4.333-6.604,0V52.578
		c0-3.913-0.087-6.456-3.787-8.598l-12.267-7.103c-3.65-2.114-0.455-7.679,3.203-5.547l10.364,6.042
		c3.483,1.719,5.239,0.08,8.644-1.893l9.985-5.786c4.815-2.79,2.506-4.268-1.193-6.359l-6.239-3.525
		c-6.38-3.606-6.454-2.667-12.005,0.494l-11.341,6.458c-5.54,3.154-6.491,4.041-6.432,10.103v15.1
		c-0.029,6.348,0.608,7.121,6.432,10.482l11.335,6.542c6.276,3.621,6.998,3.642,13.268-0.009l10.659-6.205
		c5.48-3.189,6.32-4.041,6.369-9.525l0.022-10.088c0.014-6.053-1.611-5.381-6.57-2.515l-8.437,4.876
		C52.531,47.355,50.299,48.366,50.299,52.267z"/>
</g>
</svg>
